<?xml version="1.0" standalone="no"?><!DOCTYPE svg PUBLIC "-//W3C//DTD SVG 1.1//EN" "http://www.w3.org/Graphics/SVG/1.1/DTD/svg11.dtd"><svg t="1648178901589" class="icon" viewBox="0 0 1024 1024" version="1.1" xmlns="http://www.w3.org/2000/svg" p-id="26129" xmlns:xlink="http://www.w3.org/1999/xlink" width="270" height="270"><defs><style type="text/css">@font-face { font-family: feedback-iconfont; src: url("//at.alicdn.com/t/font_1031158_u69w8yhxdu.woff2?t=1630033759944") format("woff2"), url("//at.alicdn.com/t/font_1031158_u69w8yhxdu.woff?t=1630033759944") format("woff"), url("//at.alicdn.com/t/font_1031158_u69w8yhxdu.ttf?t=1630033759944") format("truetype"); }
</style></defs><path d="M411.955446 817.765939c-8.590656-8.590656-18.777669-15.382339-30.56411-20.178575-11.791557-4.79419-24.178679-7.189749-37.358863-7.189749-13.785981 0-26.573215 2.39556-38.359656 7.189749-11.786441 4.795213-21.977547 11.586896-30.569226 20.178575-8.589632 8.590656-15.58086 18.781762-20.776186 30.567179-5.195326 11.787464-7.791453 24.173562-7.791453 37.358863 0 13.187347 2.596128 25.573445 7.791453 37.358863 5.195326 11.786441 11.985986 21.977547 20.776186 30.56411 8.590656 8.590656 18.781762 15.585977 30.569226 20.777209 11.785417 5.195326 24.572652 7.795547 38.359656 7.795547 13.181207 0 25.567305-2.600221 37.358863-7.795547 11.785417-5.191232 21.972431-12.186554 30.56411-20.777209 8.589632-8.586562 15.585977-18.776645 20.776186-30.56411 5.195326-11.785417 7.791453-24.172539 7.791453-37.358863 0-13.1853-2.596128-25.572422-7.791453-37.358863C427.341878 836.547701 420.545078 826.356594 411.955446 817.765939L411.955446 817.765939zM411.955446 817.765939" p-id="26130" fill="#1296db"></path><path d="M864.46554 850.329589c-5.196349-11.786441-11.992125-21.972431-20.777209-30.56411-8.590656-8.590656-18.98233-15.386432-31.168883-20.181645-11.987009-4.79112-24.77322-7.190773-37.759999-7.190773-13.1853 0-25.572422 2.400676-37.358863 7.190773-11.785417 4.795213-21.976524 11.590989-30.567179 20.181645-8.586562 8.590656-15.581883 18.776645-20.777209 30.56411-5.190209 11.785417-7.79043 24.172539-7.79043 37.358863s2.600221 25.573445 7.79043 37.358863c5.195326 11.786441 11.992125 21.977547 20.777209 30.569226 8.590656 8.589632 18.781762 15.58086 30.567179 20.776186 11.786441 5.195326 24.173562 7.791453 37.358863 7.791453 13.187347 0 25.77299-2.596128 37.759999-7.791453 11.985986-5.195326 22.37766-12.186554 31.168883-20.776186 8.590656-8.590656 15.58086-18.781762 20.777209-30.569226 5.190209-11.785417 7.79043-24.172539 7.79043-37.358863S869.655749 862.115006 864.46554 850.329589L864.46554 850.329589zM864.46554 850.329589" p-id="26131" fill="#1296db"></path><path d="M1016.696664 242.992243c-4.595668-7.590885-12.186554-13.981433-22.776749-19.176758-10.786671-5.195326-47.145763-11.987009-62.727647 27.966958L840.087317 494.720452l-10.587126 0c2.596128-7.791453 3.996011-15.981996 3.996011-24.77322l0-80.7143c0-44.150546-35.759435-79.913051-79.915098-79.913051l-80.709183 0c-44.154639 0-79.913051 35.762505-79.913051 79.913051l0 80.7143c0 8.391111 1.394766 16.581654 3.795443 24.172539l-42.554188 0c2.400676-7.590885 3.795443-15.780405 3.795443-24.172539l0-80.7143c0-44.150546-35.759435-79.913051-79.913051-79.913051l-80.709183 0c-44.155662 0-79.915098 35.762505-79.915098 79.913051l0 80.7143c0 8.190543 1.200338 16.181541 3.595898 23.772426l-38.158065 0c0 0-73.118298-365.200586-74.518181-370.595456-1.394766-4.796236-2.996241-10.587126-5.195326-17.182334-1.995447-6.590092-5.591345-12.986779-10.386558-19.177781-4.795213-6.194072-11.386328-11.391445-19.777439-15.585977-8.590656-4.194532-21.576411-6.191003-35.363416-6.191003L52.950979 64.987107c-15.987113-0.600681-28.572756 3.39533-37.759999 12.386098-9.389858 8.990768-13.986549 20.377096-13.986549 34.163077 0 6.991228 0.800225 14.582113 2.595105 22.773679 1.801019 8.190543 4.795213 15.981996 9.391904 23.37743 4.594645 7.189749 10.191106 13.58132 17.181311 18.577101 6.991228 5.195326 15.581883 7.79043 25.972535 7.79043l77.713966 0c16.581654 85.709057 31.368428 163.222455 44.549635 232.945423 5.595438 29.767977 10.991332 59.33641 16.581654 88.50473 5.596462 29.368888 10.592242 55.94108 14.986319 79.71453 4.396123 23.772426 8.191566 43.74941 11.386328 59.535955 3.195785 15.782451 4.995781 25.968441 5.796006 29.964452 1.995447 10.390651 4.990664 21.376866 8.791224 33.163307 3.795443 11.791557 8.786107 22.577205 14.981203 32.568766 6.191003 9.987468 13.986549 18.176988 23.372314 24.373107 9.389858 6.191003 20.977777 9.391904 34.763758 9.391904l542.609135 0c19.377326 0.594541 32.363082-4.196579 38.754652-14.58723 6.595208-10.386558 9.790994-22.37766 9.790994-36.158525 0-28.368094-16.582677-42.554188-49.744961-42.554188L327.449797 680.917154 306.873156 587.616188l549.794791 0c19.9821 0 36.764322-5.3918 50.146097-15.981996 13.385868-10.786671 24.77322-29.767977 33.763988-57.537438 4.796236-13.1853 11.190877-31.163767 19.181875-53.940516 7.992021-22.776749 15.981996-45.749974 23.772426-68.922742 7.992021-23.176862 15.382339-44.354184 22.178115-63.73151 6.991228-19.376303 11.386328-32.163537 13.381775-38.359656 2.000564-6.191003 3.200902-13.586436 3.601015-22.176069C1023.286756 258.774695 1021.292332 250.583129 1016.696664 242.992243L1016.696664 242.992243zM386.981658 389.233955c0-5.596462 4.396123-9.991562 9.990538-9.991562l80.7143 0c5.591345 0 9.986445 4.3951 9.986445 9.991562l0 80.7143c0 5.590322-4.3951 9.986445-9.986445 9.986445l-80.7143 0c-5.595438 0-9.990538-4.396123-9.990538-9.986445L386.981658 389.233955 386.981658 389.233955zM386.981658 389.233955" p-id="26132" fill="#1296db"></path><path d="M676.668387 280.351106l80.709183 0c44.155662 0 79.915098-35.759435 79.915098-79.913051l0-80.709183c0-44.153616-35.759435-79.913051-79.915098-79.913051l-80.709183 0c-44.153616 0-79.913051 35.759435-79.913051 79.913051l0 80.709183C596.755336 244.591671 632.514771 280.351106 676.668387 280.351106L676.668387 280.351106zM666.677848 119.728872c0-5.595438 4.396123-9.990538 9.990538-9.990538l80.709183 0c5.596462 0 9.990538 4.396123 9.990538 9.990538l0 80.709183c0 5.595438-4.3951 9.991562-9.990538 9.991562l-80.709183 0c-5.595438 0-9.990538-4.396123-9.990538-9.991562L666.677848 119.728872 666.677848 119.728872zM666.677848 119.728872" p-id="26133" fill="#1296db"></path><path d="M400.969231 280.351106l80.7143 0c44.149523 0 79.907934-35.759435 79.907934-79.913051l0-80.709183c0-44.153616-35.759435-79.913051-79.907934-79.913051l-80.7143 0c-44.150546 0-79.915098 35.759435-79.915098 79.913051l0 80.709183C321.055157 244.591671 356.818685 280.351106 400.969231 280.351106L400.969231 280.351106zM400.969231 280.351106" p-id="26134" fill="#1296db"></path></svg>