<?xml version="1.0" standalone="no"?><!DOCTYPE svg PUBLIC "-//W3C//DTD SVG 1.1//EN" "http://www.w3.org/Graphics/SVG/1.1/DTD/svg11.dtd"><svg class="icon" width="200px" height="200.00px" viewBox="0 0 1024 1024" version="1.1" xmlns="http://www.w3.org/2000/svg"><path fill="#707070" d="M768 179.2A76.8 76.8 0 0 1 844.8 256v51.2A76.8 76.8 0 0 1 768 384h-204.8V460.8h179.2a25.6 25.6 0 0 1 21.76 12.1344l2.048 3.9424 44.6976 111.9232H819.2a76.8 76.8 0 0 1 76.4416 69.4272L896 665.6v102.4a76.8 76.8 0 0 1-76.8 76.8h-51.2a76.8 76.8 0 0 1-76.8-76.8v-102.4c0-38.4 28.16-70.144 64.9216-75.8784L725.0432 512H563.2v76.8a76.8 76.8 0 0 1 76.4416 69.4272L640 665.6v102.4a76.8 76.8 0 0 1-76.8 76.8h-51.2A76.8 76.8 0 0 1 435.2 768v-102.4a76.8 76.8 0 0 1 76.8-76.8V512H350.1056l-31.0784 77.7216A76.8 76.8 0 0 1 384 665.6v102.4A76.8 76.8 0 0 1 307.2 844.8H256A76.8 76.8 0 0 1 179.2 768v-102.4A76.8 76.8 0 0 1 256 588.8h8.2432l44.8-111.9232a25.6 25.6 0 0 1 19.3536-15.7184L332.8 460.8H512V384H307.2a76.8 76.8 0 0 1-76.4416-69.4272L230.4 307.2V256A76.8 76.8 0 0 1 307.2 179.2z m-460.8 460.8H256a25.6 25.6 0 0 0-25.6 25.6v102.4a25.6 25.6 0 0 0 25.6 25.6h51.2a25.6 25.6 0 0 0 25.6-25.6v-102.4a25.6 25.6 0 0 0-25.6-25.6z m256 0h-51.2a25.6 25.6 0 0 0-25.6 25.6v102.4a25.6 25.6 0 0 0 25.6 25.6h51.2a25.6 25.6 0 0 0 25.6-25.6v-102.4a25.6 25.6 0 0 0-25.6-25.6z m256 0h-51.2a25.6 25.6 0 0 0-25.6 25.6v102.4a25.6 25.6 0 0 0 25.6 25.6h51.2a25.6 25.6 0 0 0 25.6-25.6v-102.4a25.6 25.6 0 0 0-25.6-25.6z m-51.2-409.6H307.2a25.6 25.6 0 0 0-25.6 25.6v51.2a25.6 25.6 0 0 0 25.6 25.6h460.8a25.6 25.6 0 0 0 25.6-25.6V256a25.6 25.6 0 0 0-25.6-25.6z" /></svg>