<?xml version="1.0" standalone="no"?><!DOCTYPE svg PUBLIC "-//W3C//DTD SVG 1.1//EN" "http://www.w3.org/Graphics/SVG/1.1/DTD/svg11.dtd"><svg class="icon" width="200px" height="200.00px" viewBox="0 0 1024 1024" version="1.1" xmlns="http://www.w3.org/2000/svg"><path fill="#707070" d="M819.2 179.2A76.8 76.8 0 0 1 896 256v512a76.8 76.8 0 0 1-76.8 76.8H204.8A76.8 76.8 0 0 1 128 768V256A76.8 76.8 0 0 1 204.8 179.2z m25.6 291.7376l-103.5264 102.6048a102.4 102.4 0 1 1-199.4752-13.824L459.776 504.064a102.144 102.144 0 0 1-75.776 33.536c-25.856 0-49.4592-9.5744-67.4816-25.3952L179.2 631.6544V768a25.6 25.6 0 0 0 20.992 25.1904L204.8 793.6h614.4a25.6 25.6 0 0 0 25.6-25.6V470.9376z m-204.8 66.6624a51.2 51.2 0 1 0 0 102.4 51.2 51.2 0 0 0 0-102.4z m179.2-307.2H204.8a25.6 25.6 0 0 0-25.6 25.6v307.8144L266.5984 487.936l20.8896-18.2784a102.4 102.4 0 1 1 196.2496-11.1616l84.48 57.344A102.0928 102.0928 0 0 1 640 486.4c31.744 0 60.2112 14.4896 79.0016 37.2224L844.8 398.848V256a25.6 25.6 0 0 0-20.992-25.1904L819.2 230.4z m-435.2 153.6a51.2 51.2 0 1 0 0 102.4 51.2 51.2 0 0 0 0-102.4z" /></svg>