<?xml version="1.0" standalone="no"?><!DOCTYPE svg PUBLIC "-//W3C//DTD SVG 1.1//EN" "http://www.w3.org/Graphics/SVG/1.1/DTD/svg11.dtd"><svg class="icon" width="200px" height="200.00px" viewBox="0 0 1024 1024" version="1.1" xmlns="http://www.w3.org/2000/svg"><path fill="#707070" d="M312.1664 653.6704a25.6 25.6 0 0 1 4.608 50.7392l-4.608 0.4608-48.9984-0.0512-63.5904 102.4h573.5936l-63.5904-102.4h-48.9472a25.6 25.6 0 0 1-25.1904-20.992l-0.4096-4.608a25.6 25.6 0 0 1 20.992-25.1392l4.608-0.4096h63.1808a25.6 25.6 0 0 1 19.1488 8.5504l2.6112 3.5328 95.3856 153.6a25.6 25.6 0 0 1-17.5616 38.7584l-4.1984 0.3584H153.6a25.6 25.6 0 0 1-23.6544-35.4304l1.8944-3.6864 95.3856-153.6a25.6 25.6 0 0 1 17.408-11.776l4.352-0.3072h63.1808z m-6.8096-450.9696a256.768 256.768 0 0 1 361.9328-0.2048 254.0544 254.0544 0 0 1 0.4096 360.3456l-148.4288 147.712a46.592 46.592 0 0 1-65.7408 0l-147.8144-147.0976a254.1568 254.1568 0 0 1-0.3584-360.7552z m325.8368 36.1472a205.568 205.568 0 0 0-289.7408 0.1536 202.9568 202.9568 0 0 0 0.3584 288.1536l144.5888 143.872 144.5376-143.8208 8.0896-8.4992a202.9056 202.9056 0 0 0-7.8336-279.8592zM486.4 281.6a102.4 102.4 0 1 1 0 204.8 102.4 102.4 0 0 1 0-204.8z m0 51.2a51.2 51.2 0 1 0 0 102.4 51.2 51.2 0 0 0 0-102.4z" /></svg>