<?xml version="1.0" standalone="no"?><!DOCTYPE svg PUBLIC "-//W3C//DTD SVG 1.1//EN" "http://www.w3.org/Graphics/SVG/1.1/DTD/svg11.dtd"><svg class="icon" width="200px" height="200.00px" viewBox="0 0 1024 1024" version="1.1" xmlns="http://www.w3.org/2000/svg"><path fill="#707070" d="M610.2 905.94H251.3a64.25 64.25 0 0 1-64.17-64.17V223.48a64.25 64.25 0 0 1 64.17-64.17h513.2a64.25 64.25 0 0 1 64.17 64.17v272.18a14.18 14.18 0 0 1-28.35 0V223.48a35.87 35.87 0 0 0-35.82-35.83H251.3a35.87 35.87 0 0 0-35.82 35.83v618.29a35.86 35.86 0 0 0 35.82 35.82h358.9a14.18 14.18 0 1 1 0 28.35zM282.62 286.79m14 0l313.04 0q14 0 14 14l0 2q0 14-14 14l-313.04 0q-14 0-14-14l0-2q0-14 14-14ZM282.62 436.42m14 0l275.83 0q14 0 14 14l0 2q0 14-14 14l-275.83 0q-14 0-14-14l0-2q0-14 14-14ZM282.62 586.05m14 0l198.87 0q14 0 14 14l0 2q0 14-14 14l-198.87 0q-14 0-14-14l0-2q0-14 14-14ZM650.92 734.74m14 0l76.53 0q14 0 14 14l0 2q0 14-14 14l-76.53 0q-14 0-14-14l0-2q0-14 14-14ZM733.52 763.88m0-14l0-76.53q0-14 14-14l2 0q14 0 14 14l0 76.53q0 14-14 14l-2 0q-14 0-14-14ZM735.2 877.68c-86.72 0-157.27-70.55-157.27-157.27s70.55-157.27 157.27-157.27 157.27 70.55 157.27 157.27-70.55 157.27-157.27 157.27z m0-286.19a128.92 128.92 0 0 0 0 257.84c71.09 0 128.93-57.83 128.93-128.92S806.29 591.49 735.2 591.49z" /></svg>