<?xml version="1.0" standalone="no"?><!DOCTYPE svg PUBLIC "-//W3C//DTD SVG 1.1//EN" "http://www.w3.org/Graphics/SVG/1.1/DTD/svg11.dtd"><svg class="icon" width="200px" height="200.00px" viewBox="0 0 1024 1024" version="1.1" xmlns="http://www.w3.org/2000/svg"><path fill="#707070" d="M614.4 128A76.8 76.8 0 0 1 691.2 204.8v76.8h108.4416a76.8 76.8 0 0 1 76.4928 69.4272l0.3072 7.3728v409.6a76.8 76.8 0 0 1-69.376 76.4416l-7.424 0.3584H204.8A76.8 76.8 0 0 1 128 768V204.8A76.8 76.8 0 0 1 204.8 128z m185.2416 204.8H691.2V768c0 9.0112-1.536 17.6128-4.4032 25.6h112.8448a25.6 25.6 0 0 0 25.1904-20.992l0.4096-4.608V358.4a25.6 25.6 0 0 0-20.992-25.1904l-4.608-0.4096zM614.4 179.2H204.8a25.6 25.6 0 0 0-25.6 25.6v563.2a25.6 25.6 0 0 0 25.6 25.6h76.7488L281.6 563.2a25.6 25.6 0 0 1 20.992-25.1904L307.2 537.6h204.8a25.6 25.6 0 0 1 25.1904 20.992l0.4096 4.608v230.4H614.4a25.6 25.6 0 0 0 25.1904-20.992L640 768V204.8a25.6 25.6 0 0 0-25.6-25.6z m-128 409.6H332.7488v204.8H486.4v-204.8z m0-204.8a25.6 25.6 0 0 1 4.608 50.7904L486.4 435.2h-153.6a25.6 25.6 0 0 1-4.608-50.7904L332.8 384h153.6z m0-128a25.6 25.6 0 0 1 4.608 50.7904L486.4 307.2h-153.6a25.6 25.6 0 0 1-4.608-50.7904L332.8 256h153.6z" /></svg>