<?xml version="1.0" standalone="no"?><!DOCTYPE svg PUBLIC "-//W3C//DTD SVG 1.1//EN" "http://www.w3.org/Graphics/SVG/1.1/DTD/svg11.dtd"><svg class="icon" width="200px" height="200.00px" viewBox="0 0 1024 1024" version="1.1" xmlns="http://www.w3.org/2000/svg"><path fill="#707070" d="M793.6 614.4a76.8 76.8 0 0 1 76.8 76.8v102.4a76.8 76.8 0 0 1-76.8 76.8h-153.6a76.8 76.8 0 0 1-76.8-76.8v-102.4a76.8 76.8 0 0 1 76.8-76.8z m-409.6-102.4A76.8 76.8 0 0 1 460.8 588.8v204.8A76.8 76.8 0 0 1 384 870.4h-153.6A76.8 76.8 0 0 1 153.6 793.6v-204.8A76.8 76.8 0 0 1 230.4 512z m409.6 153.6h-153.6a25.6 25.6 0 0 0-25.6 25.6v102.4a25.6 25.6 0 0 0 25.6 25.6h153.6a25.6 25.6 0 0 0 25.6-25.6v-102.4a25.6 25.6 0 0 0-25.6-25.6z m-409.6-102.4h-153.6a25.6 25.6 0 0 0-25.6 25.6v204.8a25.6 25.6 0 0 0 25.6 25.6h153.6a25.6 25.6 0 0 0 25.6-25.6v-204.8a25.6 25.6 0 0 0-25.6-25.6z m409.6-409.6A76.8 76.8 0 0 1 870.4 230.4v204.8a76.8 76.8 0 0 1-76.8 76.8h-153.6A76.8 76.8 0 0 1 563.2 435.2v-204.8A76.8 76.8 0 0 1 640 153.6z m0 51.2h-153.6a25.6 25.6 0 0 0-25.6 25.6v204.8a25.6 25.6 0 0 0 25.6 25.6h153.6a25.6 25.6 0 0 0 25.6-25.6v-204.8a25.6 25.6 0 0 0-25.6-25.6z m-409.6-51.2A76.8 76.8 0 0 1 460.8 230.4v102.4A76.8 76.8 0 0 1 384 409.6h-153.6A76.8 76.8 0 0 1 153.6 332.8v-102.4A76.8 76.8 0 0 1 230.4 153.6z m0 51.2h-153.6a25.6 25.6 0 0 0-25.6 25.6v102.4a25.6 25.6 0 0 0 25.6 25.6h153.6a25.6 25.6 0 0 0 25.6-25.6v-102.4a25.6 25.6 0 0 0-25.6-25.6z" /></svg>