<?xml version="1.0" standalone="no"?><!DOCTYPE svg PUBLIC "-//W3C//DTD SVG 1.1//EN" "http://www.w3.org/Graphics/SVG/1.1/DTD/svg11.dtd"><svg class="icon" width="200px" height="200.00px" viewBox="0 0 1024 1024" version="1.1" xmlns="http://www.w3.org/2000/svg"><path fill="#707070" d="M819.2 179.2A76.8 76.8 0 0 1 896 256v409.6a76.8 76.8 0 0 1-76.8 76.8h-179.2V819.2H768a25.6 25.6 0 0 1 4.608 50.7904L768 870.4H256a25.6 25.6 0 0 1-4.608-50.7904L256 819.2h153.6v-76.8H204.8A76.8 76.8 0 0 1 128 665.6V256A76.8 76.8 0 0 1 204.8 179.2z m-230.4 563.2H460.8V819.2h128v-76.8z m230.4-512H204.8a25.6 25.6 0 0 0-25.6 25.6v409.6a25.6 25.6 0 0 0 25.6 25.6h614.4a25.6 25.6 0 0 0 25.6-25.6V256a25.6 25.6 0 0 0-25.6-25.6zM358.4 353.28a25.6 25.6 0 0 1 25.1904 20.992l0.4096 4.608v163.84a25.6 25.6 0 0 1-50.7904 4.608L332.8 542.72V378.88a25.6 25.6 0 0 1 25.6-25.6z m153.6 0a25.6 25.6 0 0 1 25.1904 20.992l0.4096 4.608v163.84a25.6 25.6 0 0 1-50.7904 4.608L486.4 542.72V378.88a25.6 25.6 0 0 1 25.6-25.6z m153.6 0a25.6 25.6 0 0 1 25.1904 20.992l0.4096 4.608v163.84a25.6 25.6 0 0 1-50.7904 4.608l-0.4096-4.608V378.88a25.6 25.6 0 0 1 25.6-25.6z" /></svg>