<?xml version="1.0" standalone="no"?><!DOCTYPE svg PUBLIC "-//W3C//DTD SVG 1.1//EN" "http://www.w3.org/Graphics/SVG/1.1/DTD/svg11.dtd"><svg class="icon" width="200px" height="200.00px" viewBox="0 0 1024 1024" version="1.1" xmlns="http://www.w3.org/2000/svg"><path fill="#707070" d="M790.8864 643.4304c33.8944 19.5072 53.9136 44.032 53.9136 73.3696 0 78.336-149.0432 128-332.8 128s-332.8-49.664-332.8-128c0-29.1328 19.7632-53.5552 53.248-73.0112a25.6 25.6 0 0 1 25.7536 44.288c-19.3536 11.264-27.8016 21.6576-27.8016 28.672 0 12.8 24.7296 32.256 72.448 48.128 54.4768 18.176 129.1776 28.672 209.152 28.672 79.9744 0 154.6752-10.496 209.152-28.672 47.7184-15.872 72.448-35.328 72.448-48.128 0-7.1168-8.6016-17.6128-28.2624-28.9792a25.6 25.6 0 0 1 25.6-44.3392z m0-204.8c33.8944 19.5072 53.9136 44.032 53.9136 73.3696 0 78.336-149.0432 128-332.8 128s-332.8-49.664-332.8-128c0-29.1328 19.7632-53.5552 53.248-73.0112a25.6 25.6 0 1 1 25.7536 44.288c-19.3536 11.264-27.8016 21.6576-27.8016 28.672 0 12.8 24.7296 32.256 72.448 48.128 54.4768 18.176 129.1776 28.672 209.152 28.672 79.9744 0 154.6752-10.496 209.152-28.672 47.7184-15.872 72.448-35.328 72.448-48.128 0-7.1168-8.6016-17.6128-28.2624-28.9792a25.6 25.6 0 1 1 25.6-44.3392zM512 179.2c183.7568 0 332.8 49.664 332.8 128S695.7568 435.2 512 435.2 179.2 385.536 179.2 307.2 328.2432 179.2 512 179.2z m0 51.2c-79.9744 0-154.6752 10.5472-209.152 28.672-47.7184 15.872-72.448 35.4304-72.448 48.128s24.7296 32.256 72.448 48.128c54.4768 18.1248 129.1776 28.672 209.152 28.672 79.9744 0 154.6752-10.5472 209.152-28.672 47.7184-15.872 72.448-35.4304 72.448-48.128s-24.7296-32.256-72.448-48.128C666.624 240.9472 591.9744 230.4 512 230.4z" /></svg>