<?xml version="1.0" standalone="no"?><!DOCTYPE svg PUBLIC "-//W3C//DTD SVG 1.1//EN" "http://www.w3.org/Graphics/SVG/1.1/DTD/svg11.dtd"><svg class="icon" width="200px" height="200.00px" viewBox="0 0 1024 1024" version="1.1" xmlns="http://www.w3.org/2000/svg"><path fill="#707070" d="M819.2 179.2A76.8 76.8 0 0 1 896 256v512a76.8 76.8 0 0 1-76.8 76.8H204.8A76.8 76.8 0 0 1 128 768V256A76.8 76.8 0 0 1 204.8 179.2z m0 51.2H204.8a25.6 25.6 0 0 0-25.6 25.6v512a25.6 25.6 0 0 0 25.6 25.6h614.4a25.6 25.6 0 0 0 25.6-25.6V256a25.6 25.6 0 0 0-25.6-25.6z m-358.4 102.4a25.6 25.6 0 0 1 25.6 25.6v307.2a25.6 25.6 0 0 1-25.6 25.6H307.2a25.6 25.6 0 0 1-25.6-25.6V358.4a25.6 25.6 0 0 1 25.6-25.6z m286.72 307.2a25.6 25.6 0 0 1 4.608 50.7904l-4.608 0.4096h-163.84a25.6 25.6 0 0 1-4.608-50.7904l4.608-0.4096h163.84z m-312.32-256h-102.4v256h102.4v-256z m312.32 102.4a25.6 25.6 0 0 1 4.608 50.7904l-4.608 0.4096h-163.84a25.6 25.6 0 0 1-4.608-50.7904l4.608-0.4096h163.84z m0-153.6a25.6 25.6 0 0 1 4.608 50.7904l-4.608 0.4096h-163.84a25.6 25.6 0 0 1-4.608-50.7904l4.608-0.4096h163.84z" /></svg>