<?xml version="1.0" standalone="no"?><!DOCTYPE svg PUBLIC "-//W3C//DTD SVG 1.1//EN" "http://www.w3.org/Graphics/SVG/1.1/DTD/svg11.dtd"><svg class="icon" width="200px" height="200.00px" viewBox="0 0 1024 1024" version="1.1" xmlns="http://www.w3.org/2000/svg"><path fill="#707070" d="M435.2 128a153.6 153.6 0 0 1 153.3952 161.5872l6.9632 1.6896 11.9296 3.5328 23.552-21.8112a63.5904 63.5904 0 0 1 106.9056 49.9712l-0.7168 7.168-6.144 37.632 10.752 11.008c7.0656 7.4752 13.6704 15.36 19.8656 23.5008l8.9088 12.4416 6.656 10.4448h16.896a76.288 76.288 0 0 1 74.8544 62.1056l1.024 7.168L870.4 501.76v126.9248c0 39.7312-30.1056 72.4992-68.9152 76.2368l-7.3728 0.3584-9.8816-0.0512-2.3552 3.8912a234.8544 234.8544 0 0 1-41.5232 47.5136l-12.4416 10.24-7.9872 5.7856v21.0944c0 37.2224-26.4704 68.4032-61.7472 75.2128l-7.168 1.024-7.3728 0.3584h-50.176c-24.576 0-46.4384-11.6736-60.3648-29.696l-4.3008-6.2976-1.4848-2.6112-15.3088 0.3072-15.36-0.3072-1.4336 2.56c-10.8544 17.5104-28.5184 30.208-49.3568 34.5088l-7.9872 1.1776-7.3728 0.3584h-50.176a76.3392 76.3392 0 0 1-75.8784-69.2224l-0.3584-7.3728-0.0512-21.1456-4.7104-3.2768a231.7824 231.7824 0 0 1-82.176-111.2064l-3.8912-12.288-0.9216-3.5328-3.7376-0.9216a76.9024 76.9024 0 0 1-53.6064-59.1872l-1.024-7.168L153.6 567.7056c0-34.816 23.1424-64.4608 54.9888-73.7792l6.9632-1.6896 0.6144-0.1536 3.2256-9.8304A293.632 293.632 0 0 1 300.032 361.0624l2.4064-2.0992A153.6 153.6 0 0 1 435.2 128z m233.472 180.5824l-2.816 1.9456-46.4896 43.2128a261.2224 261.2224 0 0 0-41.8816-14.2336A153.6512 153.6512 0 0 1 335.36 398.336c-38.3488 34.304-65.536 79.8208-75.776 131.0208l-2.2528 12.6464h-27.136a25.5488 25.5488 0 0 0-25.344 25.7024 25.6 25.6 0 0 0 20.7872 25.1904l4.5568 0.4608h25.4976c5.2224 65.28 39.0656 114.1248 89.9072 145.5616l9.728 5.6832v49.2032c0 12.4928 8.8576 22.8352 20.5824 24.9856l4.5056 0.4096h50.176a25.088 25.088 0 0 0 24.6272-20.8384l0.4096-4.5568v-16.896a405.0944 405.0944 0 0 0 94.4128 2.2016l18.432-2.1504v16.896c0 12.4416 8.8064 22.784 20.5312 24.9344l4.5568 0.4096h50.176a25.088 25.088 0 0 0 24.6272-20.8384l0.4096-4.5568v-49.152c34.4576-19.0976 61.952-45.568 79.4624-79.104l5.4272-11.4176h40.4992a25.088 25.088 0 0 0 24.6784-20.8384L819.2 628.736V501.76a25.2416 25.2416 0 0 0-20.5824-24.9344l-4.5056-0.4096h-47.104a244.992 244.992 0 0 0-59.904-79.5648l-11.1104-9.2672 10.7008-65.6384a12.8 12.8 0 0 0-3.1232-10.5984 12.3904 12.3904 0 0 0-14.9504-2.7648zM652.8 460.8a38.4 38.4 0 1 1 0 76.8 38.4 38.4 0 0 1 0-76.8zM435.2 179.2a102.4 102.4 0 1 0 0 204.8 102.4 102.4 0 0 0 0-204.8z" /></svg>