<?xml version="1.0" standalone="no"?><!DOCTYPE svg PUBLIC "-//W3C//DTD SVG 1.1//EN" "http://www.w3.org/Graphics/SVG/1.1/DTD/svg11.dtd"><svg class="icon" width="200px" height="200.00px" viewBox="0 0 1024 1024" version="1.1" xmlns="http://www.w3.org/2000/svg"><path fill="#707070" d="M499.5584 143.36a49.664 49.664 0 0 1 60.6208-8.704c18.0224 10.3936 28.672 30.72 28.6208 52.224v598.8352c0.1024 21.6576-10.5984 42.0352-28.7744 52.5312a49.408 49.408 0 0 1-60.2624-8.704l-142.6944-143.616a25.6 25.6 0 0 0-18.176-7.5776H232.2944a50.944 50.944 0 0 1-39.2704-19.1488 62.72 62.72 0 0 1-13.824-39.8848L179.8144 353.28c-0.0512-14.6432 4.864-28.928 13.9776-39.8848a50.9952 50.9952 0 0 1 39.3216-18.944l104.9088 0.512a25.6 25.6 0 0 0 18.2784-7.5776z m229.7344 90.3168C831.5392 290.816 896 396.4928 896 513.024c0 114.9952-62.6176 219.3408-162.6112 277.0944a25.6 25.6 0 1 1-25.6-44.3392c84.3776-48.7424 137.0112-136.3968 137.0112-232.7552 0-97.7408-54.1696-186.4704-140.4928-234.752a25.6 25.6 0 0 1 24.9856-44.6464zM535.5008 179.712L392.6016 323.5328a76.8 76.8 0 0 1-54.8352 22.6304L233.472 345.7536a11.8784 11.8784 0 0 0-2.4576 7.5264L230.4 619.52c0 2.9696 0.9216 5.632 2.4576 7.5776 0 0.1536-0.1536 0.1024-0.512 0.1024H338.944c20.48 0 40.0896 8.192 54.4768 22.6816l142.1312 143.0528a9.0624 9.0624 0 0 0 1.8432-4.1472l0.256-2.8672V186.88a13.3632 13.3632 0 0 0-0.9216-5.12l-1.1776-1.9456z m141.6192 155.7504c71.168 35.84 116.48 102.7072 116.48 177.152 0 73.3696-44.032 139.4688-113.664 175.616a25.6 25.6 0 0 1-23.6032-45.4144c53.2992-27.6992 86.0672-76.8 86.0672-130.2016 0-54.1696-33.7408-103.936-88.32-131.3792a25.6 25.6 0 0 1 23.04-45.7728z" /></svg>