<?xml version="1.0" standalone="no"?><!DOCTYPE svg PUBLIC "-//W3C//DTD SVG 1.1//EN" "http://www.w3.org/Graphics/SVG/1.1/DTD/svg11.dtd"><svg class="icon" width="200px" height="200.00px" viewBox="0 0 1024 1024" version="1.1" xmlns="http://www.w3.org/2000/svg"><path fill="#707070" d="M848.9472 344.4224A25.6 25.6 0 0 1 896 358.4v409.6a76.8 76.8 0 0 1-76.8 76.8H204.8A76.8 76.8 0 0 1 128 768v-246.4256a25.6 25.6 0 0 1 40.0896-21.0944l136.4992 93.8496 160.3584-152.064a25.6 25.6 0 0 1 29.4912-4.1472l3.8912 2.56 190.6176 149.1456zM844.8 444.5184l-128.1536 196.6592a25.6 25.6 0 0 1-37.2224 6.144L484.1472 494.592l-159.3344 151.2448a25.6 25.6 0 0 1-28.2112 4.7104l-3.8912-2.2016L179.2 570.2656V768a25.6 25.6 0 0 0 20.992 25.1904L204.8 793.6h614.4a25.6 25.6 0 0 0 25.6-25.6V444.5184z m3.2768-312.064a25.6 25.6 0 0 1 8.9088 31.5904l-2.2528 3.9936-175.2064 256a25.6 25.6 0 0 1-33.3312 8.0384l-4.096-2.7136-168.96-139.264-199.5264 189.2864a25.6 25.6 0 0 1-32.768 2.048l-3.4304-3.0208a25.6 25.6 0 0 1-2.048-32.768l3.0208-3.4304 216.0128-204.8a25.6 25.6 0 0 1 29.952-3.84l3.9424 2.6624 164.7616 135.7824 159.4368-232.8576a25.6 25.6 0 0 1 35.584-6.656z" /></svg>