<?xml version="1.0" standalone="no"?><!DOCTYPE svg PUBLIC "-//W3C//DTD SVG 1.1//EN" "http://www.w3.org/Graphics/SVG/1.1/DTD/svg11.dtd"><svg class="icon" width="200px" height="200.00px" viewBox="0 0 1024 1024" version="1.1" xmlns="http://www.w3.org/2000/svg"><path fill="#707070" d="M626.7904 79.0016a36.2496 36.2496 0 0 1 32.256 3.328l103.936 60.0064c18.6368 10.24 30.3616 29.696 30.6176 51.3024v292.4544c0 20.992-11.1616 40.448-29.3888 50.9952l-88.4224 51.0976c-19.0976 10.9568-30.9248 31.2832-31.0784 53.1968v157.5424a111.36 111.36 0 0 1-111.3088 111.3088h-39.7312a111.616 111.616 0 0 1-112.5376-110.9504v-157.8496a61.696 61.696 0 0 0-30.9248-53.2992l-84.6848-49.1008a69.8368 69.8368 0 0 1-35.1232-59.904V198.2976c0.4096-24.576 13.7216-47.2064 35.1232-59.4944L367.9744 80.384a37.6832 37.6832 0 0 1 53.6576 34.4576v121.088c0 5.2736 2.7648 10.1376 7.3216 12.8l75.3152 43.3152c4.608 2.6112 10.24 2.6112 14.848 0l75.264-43.264a15.104 15.104 0 0 0 7.424-12.9536V115.712a37.6832 37.6832 0 0 1 19.5072-34.2528zM370.3808 137.8304l-79.36 45.4144a18.5344 18.5344 0 0 0-9.4208 15.4624v280.064a18.5856 18.5856 0 0 0 9.472 15.872l84.736 49.152a112.896 112.896 0 0 1 56.5248 97.5872v157.696a60.3136 60.3136 0 0 0 61.0816 59.9552h39.936a60.16 60.16 0 0 0 60.16-60.1088v-157.696a112.9984 112.9984 0 0 1 56.7296-97.3824l88.32-51.0464a7.7824 7.7824 0 0 0 3.84-6.7072V193.9456c0-2.7648-1.536-5.376-4.5568-6.9632l-84.8384-49.1008v97.9968c0 21.1968-10.1376 40.9088-27.136 53.3504l-5.8368 3.84-75.4176 43.3664a66.1504 66.1504 0 0 1-65.8432 0l-75.4176-43.3664c-20.48-11.776-33.024-33.6896-32.9216-57.2416l-0.0512-97.9968zM563.2 435.2a25.6 25.6 0 0 1 4.608 50.7904L563.2 486.4H460.8a25.6 25.6 0 0 1-4.608-50.7904L460.8 435.2h102.4z" /></svg>