<?xml version="1.0" standalone="no"?><!DOCTYPE svg PUBLIC "-//W3C//DTD SVG 1.1//EN" "http://www.w3.org/Graphics/SVG/1.1/DTD/svg11.dtd"><svg class="icon" width="200px" height="200.00px" viewBox="0 0 1024 1024" version="1.1" xmlns="http://www.w3.org/2000/svg"><path fill="#707070" d="M791.552 486.4c3.584 0 6.912 0.4096 10.3936 1.1776l5.376 1.4336 4.2496 1.3824 5.0688 2.3552 42.5984 25.6c22.4768 13.056 33.4848 38.7072 27.0848 62.3104l-1.9968 5.8368a48.0256 48.0256 0 0 0-1.3312 4.9664c0 4.9664 2.56 9.0112 4.9152 10.6496l1.7408 0.768 2.9184 0.3072h1.8944c19.968 0 36.096 12.3904 44.544 32l2.2528 6.0928 1.792 7.3216 0.512 3.2768c2.304 14.336 3.6864 26.3168 3.6352 37.8368 0 7.2192-0.512 14.6432-1.4848 22.4256l-1.6896 12.032-0.6656 4.2496 0.0512-2.5088-0.3584 4.4544c-3.584 20.7872-15.36 37.1712-35.0208 43.6736l-6.8608 1.792-6.8608 0.512h-1.9968c-3.4816 0-6.9632 2.56-8.4992 5.8368l-0.8192 2.4576-0.3584 6.4512 0.2048 0.6144v0.1536l0.7168 1.5872c8.0896 19.1488 4.9664 41.984-8.8064 58.88l-4.9664 5.4784-1.024 0.512-5.6832 4.608-44.5952 26.0608a53.0944 53.0944 0 0 1-26.2144 7.0144c-15.2064 0-29.8496-6.4-40.4992-17.5616l-2.9184-2.9696-6.8608-6.3488-1.1264-1.1776-3.2768 3.1744-8.2432 7.0144-2.9184 3.072a53.248 53.248 0 0 1-23.3472 12.288l-6.656 1.2288-6.8608 0.4096a46.4896 46.4896 0 0 1-10.3424-1.1776l-5.376-1.4336-4.1472-1.4336-4.9152-2.2528-44.0832-26.112a58.5216 58.5216 0 0 1-23.0912-61.7472l2.048-5.888a48.0256 48.0256 0 0 0 1.3312-5.0176 13.5168 13.5168 0 0 0-4.9664-10.6496l-1.6896-0.768-3.8912-0.256c-19.968 0-36.1472-12.3904-44.544-32l-2.304-6.144-1.9456-8.3456-0.3072-2.2016a236.3904 236.3904 0 0 1-3.7376-37.9392c0-3.4816 0.1536-7.168 0.4096-11.0592 0.4096-5.1712 0.9728-10.5472 1.7408-16.1792l1.5872-10.752-0.1024 2.1504 0.512-4.8128c3.584-20.7872 15.36-37.1712 34.9696-43.6736l6.8608-1.792 6.8608-0.512h1.8432c4.9152 0 9.6256-5.0176 9.6256-11.776l-1.1776-4.352-0.512-1.1264a58.0096 58.0096 0 0 1 8.8064-58.88l5.0176-5.4272 6.1952-4.7616 48.7936-27.7504 1.8432-0.768c7.5264-2.6624 12.3904-3.8912 19.712-3.8912 13.0048 0 25.6 4.7104 35.6352 13.056l7.2704 6.8096 7.2192 6.144 0.3584 0.4096 0.3584-0.4096 2.048-1.792 5.6832-4.8128 1.9456-1.8432c10.1888-10.8032 25.6-17.5616 40.448-17.5616z m-100.9664 51.2l-0.8704 0.3072-41.7792 23.9616-0.7168 1.3824-0.3584 2.0992 0.1024 1.6896 1.6384 3.8912c2.6624 7.2192 4.5056 14.6432 4.5056 22.4256 0 32.256-23.7056 59.392-54.528 62.6176l-6.2976 0.3072 0.256 0.8704-2.048 14.2336a212.48 212.48 0 0 0-1.3824 12.9536l-0.3072 7.424c0 4.8128 0.4096 10.3936 1.2288 16.896l2.048 14.7456 0.8704 3.5328 6.8608 0.8192c30.1568 4.352 52.3776 31.1808 52.3776 62.3104 0 7.6288-2.048 16.0768-4.9152 23.6544-0.512 1.28 0 3.6864 0.6144 5.0688l0.512 0.9216 38.2976 23.0912 3.1232 1.0752h0.5632a5.9904 5.9904 0 0 0 2.2528-1.28l4.608-3.9424-2.5088 1.8944 0.8192-0.768c17.5104-16.2304 28.5184-24.1152 45.3632-24.1152 15.9744 0 32.2048 10.752 47.9744 27.4944 1.024 1.024 2.304 1.6384 3.3792 1.6384l1.4336-0.6144 42.1376-24.7296 0.7168-1.3824 0.256-1.024 0.1536-1.024-0.1536-1.6896-0.768-1.7408a58.368 58.368 0 0 1-4.608-18.2784l0.1536-7.8336 0.512-6.7072a61.8496 61.8496 0 0 1 54.1184-54.272l6.144-0.3072-0.1536-0.8704 1.28-8.2944c1.536-9.8304 2.5088-18.7392 2.5088-26.4704 0-6.4-0.6656-13.9776-2.048-23.4496l-1.2288-7.936-0.768-3.584 0.256-0.3072h-1.4848l-6.6048-0.512c-30.1056-4.352-52.3264-31.1296-52.3264-62.3104 0-7.5776 2.048-16.0768 4.8128-23.4496 0.4608-1.1264 0.1024-2.6624-1.4336-4.1472l-1.9968-1.4848-38.6048-23.6544-3.1744-1.0752-0.8192 0.2048-1.3312 0.6144-1.024 0.768c-13.1584 13.7728-30.8224 25.5488-47.104 25.5488-16.3328 0-34.2016-11.8784-47.1552-25.6a4.9664 4.9664 0 0 0-3.3792-1.5872z m51.7632 69.0176c45.2608 0 81.2544 38.1952 81.2544 84.6336 0 46.3872-35.9936 84.6336-81.2544 84.6336-45.2096 0-81.2544-38.2464-81.2544-84.6336 0-46.4384 36.0448-84.6336 81.2544-84.6336z m0 51.2c-16.2304 0-30.0544 14.6432-30.0544 33.4336 0 18.7904 13.824 33.4336 30.0544 33.4336 16.2816 0 30.0544-14.6432 30.0544-33.4336 0-18.7904-13.824-33.4336-30.0544-33.4336zM447.232 128c4.0448 0 7.7824 0.4608 11.776 1.3312l6.144 1.6384 5.2224 1.7408 5.2736 2.4064 54.8864 32.9216c26.2144 15.2576 38.912 45.1584 31.232 72.5504l-2.0992 6.2464a45.056 45.056 0 0 0-2.2528 8.96c0 10.1888 6.144 18.6368 12.9536 21.2992l3.0208 0.768 3.6864 0.3072h2.4064c23.04 0 41.728 14.6944 51.0976 37.888l2.304 6.4512 1.8944 7.936 0.6144 4.1472c2.9184 18.0736 4.7104 33.1776 4.608 47.5136 0 12.3392-1.0752 23.9104-3.072 37.5808l-2.304 13.9776c-4.1984 24.6272-18.5344 43.8272-41.5744 50.4832l-6.5024 1.536-7.168 0.512h-2.6112a20.3264 20.3264 0 0 0-18.5856 14.5408l-0.768 3.6352-0.7168 9.472 0.2048-1.7408 0.6144 3.072 0.3584 1.2288 0.768 1.6896c9.728 23.04 5.632 50.4832-11.1616 69.8368l-4.9152 5.12-1.2288 0.6144-5.888 4.7616-56.9856 33.3824c-10.5984 5.5296-19.2512 8.192-30.3616 8.192-17.5104 0-34.4064-7.424-46.7456-20.3264-10.1376-10.752-19.7632-17.152-19.2512-17.152l-11.9808 9.6768-7.8848 6.912-3.072 3.2256c-8.0384 7.5776-18.2272 12.8-29.3888 15.104l-6.7584 1.024-6.912 0.4096c-4.096 0-7.8336-0.512-11.776-1.3312l-6.144-1.6896-5.12-1.6896-5.12-2.3552-56.2176-33.28a68.3008 68.3008 0 0 1-27.8016-65.536l1.3824-6.9632 2.4064-7.2704a41.472 41.472 0 0 0 1.7408-7.6288c0-10.24-6.0416-18.688-12.9536-21.2992l-2.9696-0.768-4.9152-0.3072c-23.04 0-41.728-14.7456-51.0976-37.888l-2.304-6.5024-1.8944-7.8848-0.6144-4.1472a297.984 297.984 0 0 1-4.7104-47.616c0-4.3008 0.2048-8.8576 0.512-13.7216l0.9216-9.8816 2.56-19.1488 0.8192-5.2224-0.1024 2.1504 0.6144-5.7856c4.1984-24.576 18.5344-43.776 41.5744-50.4832l6.5024-1.4848 7.168-0.512h2.4576c10.4448 0 19.6096-9.728 19.6096-22.4256a21.9136 21.9136 0 0 0-0.9216-4.9152l-1.2288-3.7888-0.512-1.1776a67.2768 67.2768 0 0 1 11.264-69.632l4.9152-5.12 6.6048-4.9664 61.696-35.1744 2.048-0.8192c8.96-3.2256 14.5408-4.608 22.8864-4.608 15.0016 0 29.5424 5.4272 41.1648 15.104l5.5296 5.12c6.4 6.8096 18.3296 14.7456 18.2272 14.7456l6.656-4.8128a121.856 121.856 0 0 0 8.8576-7.2704l2.6624-2.56c11.776-12.4928 29.696-20.3264 46.7456-20.3264z m0 51.2a15.6672 15.6672 0 0 0-9.6256 4.352c-15.616 16.384-36.9664 30.6176-55.296 30.6176-18.3296 0-39.936-14.336-55.296-30.6176a13.6704 13.6704 0 0 0-9.6256-4.352l-0.9728 0.1024-3.1232 0.9216-55.7056 32.1024a14.336 14.336 0 0 0-3.6352 8.704v3.4304l0.7168 3.0208 1.8432 4.4544c3.2256 8.5504 5.3248 17.3056 5.3248 26.2656 0 37.888-27.8528 69.632-63.9488 73.216l-6.8608 0.3584-2.816 0.0512c-0.9216 0.1536-2.4064 1.792-3.6352 6.3488l-0.8192 3.8912-2.304 15.4624c-0.8704 6.144-1.4848 11.8784-1.8432 17.152a141.7728 141.7728 0 0 0-0.4096 10.0352c0 8.704 1.024 18.944 2.7648 31.232l1.5872 10.6496 0.9216 3.9424c1.3824 4.4544 2.7136 6.2464 3.584 6.8096l0.512 0.2048 2.8672 0.0512 6.8096 0.512c35.7376 4.4032 62.464 35.9936 62.464 73.0112 0 4.9664-0.768 10.0864-2.048 15.36l-2.2528 8.0896-1.9456 5.5296a17.7152 17.7152 0 0 0 3.0208 13.3632l1.9456 2.048 50.6368 30.3616 3.6864 1.2288c1.3824 0.4096 2.048 0.512 2.3552 0.512 3.2256 0 5.9392-0.9216 10.752-5.0688l3.1744-2.8672-2.2016 1.6384 0.9216-0.9216c20.7872-19.2512 34.4576-29.0816 53.3504-29.0816 17.92 0 37.376 12.9536 56.3712 33.1264a13.6704 13.6704 0 0 0 9.6256 4.352 7.8336 7.8336 0 0 0 3.2256-0.6656l2.304-1.1264 54.2208-31.7952 1.28-0.8704a14.336 14.336 0 0 0 3.584-8.8064v-3.3792l-0.7168-3.072-0.6656-1.3824a62.7712 62.7712 0 0 1-5.4272-25.0368l0.3584-7.7312-0.3584 4.1984 0.512-8.96c3.7376-34.4064 30.3616-61.5936 63.5904-64.8192l6.7584-0.3584 0.3072 0.1024 2.6624-0.1024c0.9216-0.2048 2.4064-1.792 3.6352-6.4l0.8704-3.9936 0.512-2.8672c2.56-15.7184 4.0448-27.8528 4.0448-39.7824 0-6.5024-0.512-13.7728-1.536-22.1696l-2.7136-19.456-0.9216-3.9936c-1.3824-4.4032-2.7648-6.2464-3.584-6.8096l-0.512-0.1536-4.0448-0.0512-6.8096-0.512c-35.7376-4.4032-62.464-35.9936-62.464-73.0112 0-8.704 2.5088-18.8928 5.6832-27.4432 1.8432-4.5056 0.4096-9.8816-4.2496-13.9776l-3.1744-2.2528-51.0464-31.1296-3.7376-1.2288a11.0592 11.0592 0 0 0-2.4576-0.5632zM383.9488 282.5728c54.016 0 97.1776 45.7216 97.1776 101.4784s-43.1616 101.4784-97.1776 101.4784S286.72 439.808 286.72 384.0512 329.9328 282.624 384 282.624z m0 51.2c-25.088 0-45.9776 22.1696-45.9776 50.2784 0 28.16 20.9408 50.2784 45.9776 50.2784 25.088 0 45.9776-22.1696 45.9776-50.2784 0-28.1088-20.9408-50.2784-45.9776-50.2784z" /></svg>