<?xml version="1.0" standalone="no"?><!DOCTYPE svg PUBLIC "-//W3C//DTD SVG 1.1//EN" "http://www.w3.org/Graphics/SVG/1.1/DTD/svg11.dtd"><svg class="icon" width="200px" height="200.00px" viewBox="0 0 1024 1024" version="1.1" xmlns="http://www.w3.org/2000/svg"><path fill="#707070" d="M435.2 179.2a153.6 153.6 0 0 1 97.8944 271.9744A307.2 307.2 0 0 1 742.4 742.4c0 55.9616-30.1056 90.0608-84.8384 104.6528-31.744 8.4992-61.7984 10.8032-128.9216 10.6496l-51.712-0.512-53.8112-0.2048-68.3008 0.6144c-67.4304 0.4608-100.1472-1.0752-130.048-7.68l-11.9296-2.8672C158.0544 832.512 128 798.3616 128 742.4a307.3536 307.3536 0 0 1 209.3568-291.328A153.6 153.6 0 0 1 435.2 179.2z m0 307.2a256 256 0 0 0-256 256c0 31.232 13.312 46.2336 46.848 55.1936 24.6784 6.6048 50.7904 8.8064 106.0864 8.9088l115.6608-0.7168 90.4704 0.7168c55.296-0.1024 81.408-2.304 106.0864-8.9088 33.5872-8.96 46.848-24.0128 46.848-55.1936a256 256 0 0 0-256-256z m164.2496-307.2a153.6 153.6 0 0 1 132.4544 231.424l-1.6896 2.56 1.8944 0.8704a307.2512 307.2512 0 0 1 174.2848 264.3456l0.256 12.8c0 61.2864-35.4816 95.5392-99.7888 108.0832a25.6 25.6 0 0 1-9.8304-50.2272c42.2912-8.2944 58.368-23.808 58.368-57.856A256 256 0 0 0 680.96 448.512a25.6 25.6 0 0 1-9.7792-42.5984 102.4 102.4 0 0 0-71.68-175.5136 25.6 25.6 0 0 1 0-51.2zM435.2 230.4a102.4 102.4 0 1 0 0 204.8 102.4 102.4 0 0 0 0-204.8z" /></svg>