<?xml version="1.0" standalone="no"?><!DOCTYPE svg PUBLIC "-//W3C//DTD SVG 1.1//EN" "http://www.w3.org/Graphics/SVG/1.1/DTD/svg11.dtd"><svg class="icon" width="200px" height="200.00px" viewBox="0 0 1024 1024" version="1.1" xmlns="http://www.w3.org/2000/svg"><path fill="#707070" d="M819.2 179.2a76.8 76.8 0 0 1 76.4416 69.4272L896 256v281.6a25.6 25.6 0 0 1-50.7904 4.608l-0.4096-4.608V256a25.6 25.6 0 0 0-20.992-25.1904L819.2 230.4H256a25.6 25.6 0 0 0-25.1904 20.992L230.4 256v558.9504c0 14.848 10.8544 27.136 25.0368 29.44l4.8128 0.4096H563.2a25.6 25.6 0 0 1 4.608 50.7904L563.2 896H260.2496a81.1008 81.1008 0 0 1-80.7424-73.728l-0.3072-7.3216V256a76.8 76.8 0 0 1 69.4272-76.4416L256 179.2h563.2z m-102.4 409.6a128 128 0 0 1 106.8032 198.5536l60.5184 60.5696a25.6 25.6 0 0 1-32.6656 39.168l-3.584-2.9696-60.5184-60.5184A128 128 0 1 1 716.8 588.8z m0 51.2a76.8 76.8 0 1 0 0 153.6 76.8 76.8 0 0 0 0-153.6z m-179.2-358.4a102.4 102.4 0 0 1 77.2096 169.6768c24.0128 10.5472 46.08 25.9072 64.9216 45.4144a25.6 25.6 0 1 1-36.8128 35.584c-28.3648-29.3376-65.6896-45.8752-105.3184-45.8752-84.3776 0-153.6 75.008-153.6 168.5504 0 18.176 5.888 25.3952 23.296 30.464 18.432 5.3248 39.5264 6.2464 96.4608 5.5296a25.6 25.6 0 1 1 0.6656 51.2l-33.3312 0.2048c-38.9632-0.0512-57.8048-1.8944-78.08-7.7824-38.6048-11.264-60.2112-37.888-60.2112-79.616 0-91.8528 52.5824-170.9056 127.6416-203.6224A102.4 102.4 0 0 1 537.6 281.6z m0 51.2a51.2 51.2 0 1 0 0 102.4 51.2 51.2 0 0 0 0-102.4z" /></svg>