<?xml version="1.0" standalone="no"?><!DOCTYPE svg PUBLIC "-//W3C//DTD SVG 1.1//EN" "http://www.w3.org/Graphics/SVG/1.1/DTD/svg11.dtd"><svg class="icon" width="200px" height="200.00px" viewBox="0 0 1024 1024" version="1.1" xmlns="http://www.w3.org/2000/svg"><path fill="#707070" d="M409.6 179.2a25.6 25.6 0 0 1 25.6 25.6v76.8h307.2a25.6 25.6 0 0 1 25.1904 20.992L768 307.2v236.7488l55.552-47.2064 3.7376-2.6624a25.6 25.6 0 0 1 29.44 41.6768l-69.9392 59.5456a153.6512 153.6512 0 1 1-195.84 172.7488L307.2 768a25.6 25.6 0 0 1-25.1904-20.992L281.6 742.4V478.4128l-59.904 52.7872a25.6 25.6 0 0 1-32.768 0.9216l-3.328-3.2256a25.6 25.6 0 0 1-0.9216-32.768l3.2256-3.328L253.2352 435.2H204.8a25.6 25.6 0 0 1-25.1904-20.992L179.2 409.6V204.8a25.6 25.6 0 0 1 25.6-25.6z m332.8 460.8a102.4 102.4 0 1 0 0 204.8 102.4 102.4 0 0 0 0-204.8z m-25.6-307.2H435.2V409.6a25.6 25.6 0 0 1-25.6 25.6h-50.1248l67.4816 62.208a25.6 25.6 0 0 1-31.0272 40.448l-3.6864-2.816L332.8 480.256V716.8h258.0992a153.8048 153.8048 0 0 1 105.472-120.9856l-75.4688-59.4432-3.328-3.1744a25.6 25.6 0 0 1-0.9216-32.768l3.1744-3.3792a25.6 25.6 0 0 1 32.768-0.9216l64.2048 50.5344V332.8z m-332.8-102.4h-153.6v153.6h153.6v-153.6z" /></svg>