<?xml version="1.0" standalone="no"?><!DOCTYPE svg PUBLIC "-//W3C//DTD SVG 1.1//EN" "http://www.w3.org/Graphics/SVG/1.1/DTD/svg11.dtd"><svg class="icon" width="200px" height="200.00px" viewBox="0 0 1024 1024" version="1.1" xmlns="http://www.w3.org/2000/svg"><path fill="#707070" d="M737.28 179.2a76.8 76.8 0 0 1 76.4416 69.4272L814.08 256v328.2432l0.9728 0.8192c97.9968 83.3024 122.88 107.1104 127.6928 128.4608l0.512 2.3552 0.512 4.7616-0.1024 7.168a45.312 45.312 0 0 1-12.8 27.2896l-104.96 102.1952c-42.9056 41.2672-51.5584 47.9744-62.9248 49.8176l-5.376 0.6144-9.1136-0.0512-4.4544-0.6656c-8.5504-1.6896-12.3904-3.2768-24.9856-12.5952l-38.2464-28.928-11.9296-8.448-138.5984 2.7136c-130.56 2.048-155.136-0.4096-168.96-11.6224l-3.3792-3.072-158.208-124.6208c-46.7968-37.632-59.0336-49.8688-64-59.8528l-4.096-10.1376a72.2944 72.2944 0 0 1 7.8336-61.5424c15.36-22.784 42.3424-33.536 77.2096-33.536 14.08 0 27.2896 2.56 41.472 8.192V256a76.8 76.8 0 0 1 69.4272-76.4416l7.424-0.3584H737.28z m-97.8944 392.5504h-149.504c-25.344 0-36.352 12.1856-36.352 30.5152 0 12.9024 14.592 29.0816 31.2832 32.256l9.5744 1.6896 58.1632 8.448a25.6 25.6 0 0 1 10.8544 46.3872 130.048 130.048 0 0 1-16.9984 9.8816 25.6 25.6 0 0 1-11.1616 2.56H380.416l-9.2672-1.7408c-7.68-2.9696-16.4864-9.216-33.3824-22.3744l-23.0912-18.1248c-49.5616-38.7072-76.8-54.6816-97.9968-54.6816-19.4048 0-30.3104 4.352-34.304 10.24-3.7376 5.9392-4.1984 13.312-0.512 21.4016 2.56 3.7376 24.064 22.1184 98.2528 80.5888l104.0384 81.664 8.9088 7.3216c0-0.0512 0-0.1024 0.1024-0.1024l29.6448 0.8704c20.0704 0.512 49.7152 0.5632 92.672 0.0512l159.3344-2.8672 10.6496 2.1504c7.5264 3.2256 18.1248 10.4448 33.9456 22.4256l14.8992 11.4688 18.176 13.7216 0.9216-0.8704 9.216-8.192c4.7616-4.3008 10.752-9.8816 18.7904-17.5104l109.6192-106.4448-7.936-8.192c-11.52-11.776-31.4368-30.0544-62.6176-57.088l-38.6048-33.1264a220.16 220.16 0 0 0-142.4896-52.3264zM737.28 230.4H335.0016a25.6 25.6 0 0 0-25.1904 20.992L309.4016 256v334.9504l-0.256 2.0992c7.7824 5.5296 16.128 11.6736 25.088 18.5344l39.936 31.232 12.8 9.4208h34.4064l-2.304-2.8672a80.896 80.896 0 0 1-16.384-39.936l-0.3584-7.168c0-45.5168 32.7168-81.7152 87.552-81.7152h149.504a271.36 271.36 0 0 1 123.5456 29.7472L762.88 256a25.6 25.6 0 0 0-20.992-25.1904L737.28 230.4z m-97.28 110.9504a25.6 25.6 0 0 1 4.608 50.7904l-4.608 0.4096h-204.8a25.6 25.6 0 0 1-4.608-50.7904l4.608-0.4096h204.8z" /></svg>