<?xml version="1.0" standalone="no"?><!DOCTYPE svg PUBLIC "-//W3C//DTD SVG 1.1//EN" "http://www.w3.org/Graphics/SVG/1.1/DTD/svg11.dtd"><svg class="icon" width="200px" height="200.00px" viewBox="0 0 1024 1024" version="1.1" xmlns="http://www.w3.org/2000/svg"><path fill="#707070" d="M614.4 128a76.8 76.8 0 0 1 76.4416 69.4272L691.2 204.8v25.6H870.4a25.6 25.6 0 0 1 25.1904 20.992L896 256v51.2a25.6 25.6 0 0 1-50.7904 4.608L844.8 307.2v-25.6h-51.2V819.2a76.8 76.8 0 0 1-69.4272 76.4416L716.8 896H307.2a76.8 76.8 0 0 1-76.4416-69.4272L230.4 819.2V281.6h-51.2V307.2a25.6 25.6 0 0 1-20.992 25.1904L153.6 332.8a25.6 25.6 0 0 1-25.1904-20.992L128 307.2V256a25.6 25.6 0 0 1 20.992-25.1904L153.6 230.4h179.2V204.8a76.8 76.8 0 0 1 69.4272-76.4416L409.6 128h204.8z m128 153.6h-460.8V819.2a25.6 25.6 0 0 0 20.992 25.1904L307.2 844.8h409.6a25.6 25.6 0 0 0 25.1904-20.992L742.4 819.2V281.6z m-230.4 102.4a25.6 25.6 0 0 1 25.1904 20.992L537.6 409.6v307.2a25.6 25.6 0 0 1-50.7904 4.608L486.4 716.8V409.6a25.6 25.6 0 0 1 25.6-25.6z m-102.4 0a25.6 25.6 0 0 1 25.1904 20.992L435.2 409.6v307.2a25.6 25.6 0 0 1-50.7904 4.608L384 716.8V409.6a25.6 25.6 0 0 1 25.6-25.6z m204.8 0a25.6 25.6 0 0 1 25.1904 20.992L640 409.6v307.2a25.6 25.6 0 0 1-50.7904 4.608L588.8 716.8V409.6a25.6 25.6 0 0 1 25.6-25.6z m0-204.8H409.6a25.6 25.6 0 0 0-25.1904 20.992L384 204.8v25.6h256V204.8a25.6 25.6 0 0 0-20.992-25.1904L614.4 179.2z" /></svg>