<?xml version="1.0" standalone="no"?><!DOCTYPE svg PUBLIC "-//W3C//DTD SVG 1.1//EN" "http://www.w3.org/Graphics/SVG/1.1/DTD/svg11.dtd"><svg class="icon" width="200px" height="200.00px" viewBox="0 0 1024 1024" version="1.1" xmlns="http://www.w3.org/2000/svg"><path fill="#707070" d="M695.6032 163.84a76.8 76.8 0 0 1 48.64 17.408l5.632 5.12 87.4496 87.3472a25.6 25.6 0 0 1 6.2976 25.8048c0.3072 0.9728 0.5632 2.048 0.768 3.072L844.8 307.2v186.368a25.6 25.6 0 0 1-50.7904 4.5568l-0.4096-4.608V332.8h-563.2V768a25.6 25.6 0 0 0 20.992 25.1904L256 793.6h237.568a25.6 25.6 0 0 1 4.608 50.7904l-4.608 0.4096H256a76.8 76.8 0 0 1-76.4416-69.4272L179.2 768V307.2a25.6 25.6 0 0 1 1.1776-7.68 25.6 25.6 0 0 1 3.3792-22.2208l2.9184-3.584L274.1248 186.368a76.8 76.8 0 0 1 46.6944-22.1184l7.5776-0.3584h367.2064zM665.6 537.6a128 128 0 0 1 106.8032 198.5536l60.5184 60.5696a25.6 25.6 0 0 1-32.6656 39.168l-3.584-2.9696-60.5184-60.5184A128 128 0 1 1 665.6 537.6z m0 51.2a76.8 76.8 0 1 0 0 153.6 76.8 76.8 0 0 0 0-153.6zM665.6 409.6a25.6 25.6 0 0 1 4.608 50.7904L665.6 460.8H358.4a25.6 25.6 0 0 1-4.608-50.7904L358.4 409.6h307.2z m30.0032-194.56H328.3968a25.6 25.6 0 0 0-15.0016 4.864l-3.072 2.6112L251.2384 281.6h521.472l-59.0336-59.0336a25.6 25.6 0 0 0-14.08-7.168l-3.9936-0.3072z" /></svg>