<?xml version="1.0" standalone="no"?><!DOCTYPE svg PUBLIC "-//W3C//DTD SVG 1.1//EN" "http://www.w3.org/Graphics/SVG/1.1/DTD/svg11.dtd"><svg class="icon" width="200px" height="200.00px" viewBox="0 0 1024 1024" version="1.1" xmlns="http://www.w3.org/2000/svg"><path fill="#707070" d="M416.4096 128a288.4096 288.4096 0 0 1 284.8768 333.9264l-2.9184 15.2064 102.0416 105.216 71.4752 72.9088a76.8 76.8 0 0 1 22.3232 54.1184v84.992a76.8 76.8 0 0 1-76.8 76.8h-91.2384a76.8 76.8 0 0 1-76.4928-70.0416l-2.9184-32.768-47.7184 0.0512a25.6 25.6 0 0 1-25.1904-20.992l-0.4096-4.608-0.0512-56.7296h-54.784l-9.6256 3.584c-24.576 8.3456-50.3808 13.312-76.6976 14.7456l-15.872 0.4608a293.376 293.376 0 0 1-12.3904-0.256c-33.0752 117.504-94.2592 198.912-157.5424 186.624-71.9872-13.9776-96.1024-140.544-68.4544-282.7776 1.4848-7.7312 3.072-15.36 4.864-22.8864A288.4096 288.4096 0 0 1 416.4608 128z m-190.7712 504.7296l-1.4848 9.3696c-15.872 106.24 2.6112 193.1776 32.1024 198.8608 25.7024 5.0176 69.632-53.4528 96.4608-143.2064a287.232 287.232 0 0 1-127.0784-65.024zM416.4096 179.2a237.2096 237.2096 0 0 0-213.9648 339.8144c19.3024-53.1456 44.8-96.1024 73.216-121.856a97.28 97.28 0 1 1 27.6992 43.6736c-22.7328 24.7808-47.5648 72.6016-64.512 132.8128a236.4928 236.4928 0 0 0 177.5616 80.0256 236.544 236.544 0 0 0 88.1664-16.896l9.5232-1.8432H599.04a25.6 25.6 0 0 1 25.6 25.6l-0.0512 56.6272 45.6704 0.0512a25.6 25.6 0 0 1 24.7808 19.0976l0.7168 4.2496 4.9152 56.1152a25.6 25.6 0 0 0 25.4976 23.3472h91.2384a25.6 25.6 0 0 0 25.6-25.6v-84.992a25.6 25.6 0 0 0-7.424-18.0736 5105.0496 5105.0496 0 0 1-12.4928-12.5952l-171.264-176.128a25.6 25.6 0 0 1-6.2976-24.4224A237.2096 237.2096 0 0 0 416.4096 179.2z m230.7072 383.4368l3.584 2.9184 143.36 143.36a25.6 25.6 0 0 1-32.7168 39.168l-3.5328-2.9184-143.36-143.36a25.6 25.6 0 0 1 32.6656-39.168zM368.64 322.56a46.08 46.08 0 0 0-45.9776 49.3056c8.2944-1.536 16.4864-1.536 24.7808 0a25.6 25.6 0 0 1 14.1824 42.24A46.08 46.08 0 1 0 368.64 322.56z" /></svg>