<?xml version="1.0" standalone="no"?><!DOCTYPE svg PUBLIC "-//W3C//DTD SVG 1.1//EN" "http://www.w3.org/Graphics/SVG/1.1/DTD/svg11.dtd"><svg t="1648179606519" class="icon" viewBox="0 0 1024 1024" version="1.1" xmlns="http://www.w3.org/2000/svg" p-id="37481" xmlns:xlink="http://www.w3.org/1999/xlink" width="270" height="270"><defs><style type="text/css">@font-face { font-family: feedback-iconfont; src: url("//at.alicdn.com/t/font_1031158_u69w8yhxdu.woff2?t=1630033759944") format("woff2"), url("//at.alicdn.com/t/font_1031158_u69w8yhxdu.woff?t=1630033759944") format("woff"), url("//at.alicdn.com/t/font_1031158_u69w8yhxdu.ttf?t=1630033759944") format("truetype"); }
</style></defs><path d="M716.8 844.8c-15.36 0-25.6-10.24-25.6-25.6s10.24-25.6 25.6-25.6 25.6-10.24 25.6-25.6v-358.4c0-5.12 0-10.24 5.12-15.36l-235.52-158.72-235.52 158.72c5.12 5.12 5.12 10.24 5.12 15.36v358.4c0 15.36 10.24 25.6 25.6 25.6s25.6 10.24 25.6 25.6-10.24 25.6-25.6 25.6c-40.96 0-76.8-35.84-76.8-76.8v-332.8h-25.6c-10.24 0-20.48-5.12-25.6-20.48-5.12-10.24 0-20.48 10.24-30.72l307.2-204.8c10.24-5.12 20.48-5.12 30.72 0l307.2 204.8c10.24 5.12 15.36 20.48 10.24 30.72-5.12 10.24-15.36 20.48-25.6 20.48h-25.6V768c0 40.96-35.84 76.8-76.8 76.8z" p-id="37482" fill="#1296db"></path><path d="M614.4 844.8h-204.8c-15.36 0-25.6-10.24-25.6-25.6s10.24-25.6 25.6-25.6h204.8c15.36 0 25.6 10.24 25.6 25.6s-10.24 25.6-25.6 25.6zM614.4 742.4h-204.8c-15.36 0-25.6-10.24-25.6-25.6s10.24-25.6 25.6-25.6h204.8c15.36 0 25.6 10.24 25.6 25.6s-10.24 25.6-25.6 25.6zM614.4 640h-204.8c-15.36 0-25.6-10.24-25.6-25.6s10.24-25.6 25.6-25.6h204.8c15.36 0 25.6 10.24 25.6 25.6s-10.24 25.6-25.6 25.6zM614.4 537.6h-204.8c-15.36 0-25.6-10.24-25.6-25.6s10.24-25.6 25.6-25.6h204.8c15.36 0 25.6 10.24 25.6 25.6s-10.24 25.6-25.6 25.6zM614.4 435.2h-204.8c-15.36 0-25.6-10.24-25.6-25.6s10.24-25.6 25.6-25.6h204.8c15.36 0 25.6 10.24 25.6 25.6s-10.24 25.6-25.6 25.6z" p-id="37483" fill="#1296db"></path></svg>