<?xml version="1.0" standalone="no"?><!DOCTYPE svg PUBLIC "-//W3C//DTD SVG 1.1//EN" "http://www.w3.org/Graphics/SVG/1.1/DTD/svg11.dtd"><svg t="1648282671851" class="icon" viewBox="0 0 1024 1024" version="1.1" xmlns="http://www.w3.org/2000/svg" p-id="2586" width="270" height="270" xmlns:xlink="http://www.w3.org/1999/xlink"><defs><style type="text/css">@font-face { font-family: feedback-iconfont; src: url("//at.alicdn.com/t/font_1031158_u69w8yhxdu.woff2?t=1630033759944") format("woff2"), url("//at.alicdn.com/t/font_1031158_u69w8yhxdu.woff?t=1630033759944") format("woff"), url("//at.alicdn.com/t/font_1031158_u69w8yhxdu.ttf?t=1630033759944") format("truetype"); }
</style></defs><path d="M260.266667 236.8h505.6v55.466667H260.266667v-55.466667z m-2.133334 110.933333h505.6v55.466667H258.133333v-55.466667z m0 110.933334h130.133334v55.466666h-130.133334v-55.466666z m0 108.8h57.6v55.466666h-57.6v-55.466666zM891.733333 70.4H132.266667c-36.266667 0-61.866667 23.466667-61.866667 55.466667v772.266666c0 29.866667 27.733333 55.466667 61.866667 55.466667h296.533333v-55.466667H132.266667V125.866667h759.466666v334.933333h61.866667V125.866667c0-32-27.733333-55.466667-61.866667-55.466667z" fill="#1296db" p-id="2587"></path><path d="M915.2 759.466667H582.4c-14.933333 0-27.733333-12.8-27.733333-27.733334 0-14.933333 12.8-27.733333 27.733333-27.733333h330.666667c14.933333 0 27.733333 12.8 27.733333 27.733333 2.133333 14.933333-10.666667 27.733333-25.6 27.733334z" fill="#1296db" p-id="2588"></path><path d="M934.4 750.933333l-138.666667 138.666667c-10.666667 10.666667-27.733333 10.666667-38.4 0s-10.666667-27.733333 0-38.4l138.666667-138.666667c10.666667-10.666667 27.733333-10.666667 38.4 0s10.666667 27.733333 0 38.4z" fill="#1296db" p-id="2589"></path><path d="M896 750.933333l-138.666667-138.666666c-10.666667-10.666667-10.666667-27.733333 0-38.4s27.733333-10.666667 38.4 0l138.666667 138.666666c10.666667 10.666667 10.666667 27.733333 0 38.4s-27.733333 10.666667-38.4 0z" fill="#1296db" p-id="2590"></path></svg>