<?xml version="1.0" standalone="no"?><!DOCTYPE svg PUBLIC "-//W3C//DTD SVG 1.1//EN" "http://www.w3.org/Graphics/SVG/1.1/DTD/svg11.dtd"><svg t="1648179583400" class="icon" viewBox="0 0 1024 1024" version="1.1" xmlns="http://www.w3.org/2000/svg" p-id="37091" xmlns:xlink="http://www.w3.org/1999/xlink" width="270" height="270"><defs><style type="text/css">@font-face { font-family: feedback-iconfont; src: url("//at.alicdn.com/t/font_1031158_u69w8yhxdu.woff2?t=1630033759944") format("woff2"), url("//at.alicdn.com/t/font_1031158_u69w8yhxdu.woff?t=1630033759944") format("woff"), url("//at.alicdn.com/t/font_1031158_u69w8yhxdu.ttf?t=1630033759944") format("truetype"); }
</style></defs><path d="M593.92 102.56384H266.24a81.944576 81.944576 0 0 0-81.92 81.92v655.36a81.944576 81.944576 0 0 0 81.92 81.92h491.52a81.944576 81.944576 0 0 0 81.92-81.92v-491.52l-245.76-245.76z m-163.84 737.28H266.24v-327.68h163.84v72.9088H348.16v181.8624h81.92v72.9088z m122.88-40.96v-84.7872h-122.88v-77.0048h122.88v-83.968l122.88 122.88-122.88 122.88z m0-409.6v-225.28l225.28 225.28h-225.28z m0 0" fill="#1296db" p-id="37092"></path></svg>