<?xml version="1.0" standalone="no"?><!DOCTYPE svg PUBLIC "-//W3C//DTD SVG 1.1//EN" "http://www.w3.org/Graphics/SVG/1.1/DTD/svg11.dtd"><svg t="1648177432963" class="icon" viewBox="0 0 1354 1024" version="1.1" xmlns="http://www.w3.org/2000/svg" p-id="15861" xmlns:xlink="http://www.w3.org/1999/xlink" width="357.01171875" height="270"><defs><style type="text/css">@font-face { font-family: feedback-iconfont; src: url("//at.alicdn.com/t/font_1031158_u69w8yhxdu.woff2?t=1630033759944") format("woff2"), url("//at.alicdn.com/t/font_1031158_u69w8yhxdu.woff?t=1630033759944") format("woff"), url("//at.alicdn.com/t/font_1031158_u69w8yhxdu.ttf?t=1630033759944") format("truetype"); }
</style></defs><path d="M105.199882 102.831404m-102.831404 0a3.647 3.647 0 1 0 205.662809 0 3.647 3.647 0 1 0-205.662809 0Z" p-id="15862" fill="#1296db"></path><path d="M105.199882 376.390572m-102.831404 0a3.647 3.647 0 1 0 205.662809 0 3.647 3.647 0 1 0-205.662809 0Z" p-id="15863" fill="#1296db"></path><path d="M102.831404 647.609458m-102.831404 0a3.647 3.647 0 1 0 205.662809 0 3.647 3.647 0 1 0-205.662809 0Z" p-id="15864" fill="#1296db"></path><path d="M102.831404 921.168625m-102.831404 0a3.647 3.647 0 1 0 205.662809 0 3.647 3.647 0 1 0-205.662809 0Z" p-id="15865" fill="#1296db"></path><path d="M255.964762 34.427514l1094.293063 0 0 136.779584-1094.293063 0 0-136.779584Z" p-id="15866" fill="#1296db"></path><path d="M1347.861151 442.425984 253.596285 442.425984 255.964762 308.014878 1350.257825 308.014878Z" p-id="15867" fill="#1296db"></path><path d="M255.992958 579.205568l1094.264866 0 0 136.779584-1094.264866 0 0-136.779584Z" p-id="15868" fill="#1296db"></path><path d="M255.964762 852.764735l1094.293063 0 0 136.80778-1094.293063 0 0-136.80778Z" p-id="15869" fill="#1296db"></path></svg>