<?xml version="1.0" standalone="no"?><!DOCTYPE svg PUBLIC "-//W3C//DTD SVG 1.1//EN" "http://www.w3.org/Graphics/SVG/1.1/DTD/svg11.dtd"><svg t="1648180235758" class="icon" viewBox="0 0 1024 1024" version="1.1" xmlns="http://www.w3.org/2000/svg" p-id="50393" xmlns:xlink="http://www.w3.org/1999/xlink" width="270" height="270"><defs><style type="text/css">@font-face { font-family: feedback-iconfont; src: url("//at.alicdn.com/t/font_1031158_u69w8yhxdu.woff2?t=1630033759944") format("woff2"), url("//at.alicdn.com/t/font_1031158_u69w8yhxdu.woff?t=1630033759944") format("woff"), url("//at.alicdn.com/t/font_1031158_u69w8yhxdu.ttf?t=1630033759944") format("truetype"); }
</style></defs><path d="M798.7 1003.5H225.3c-67.8 0-122.9-55.1-122.9-122.9V757.8C102.4 599.7 231 471 389.1 471h245.8c158.1 0 286.7 128.6 286.7 286.7v122.9c0 67.8-55.1 122.9-122.9 122.9zM389.1 553c-112.9 0-204.8 91.9-204.8 204.8v122.9c0 22.6 18.4 41 41 41h573.4c22.6 0 41-18.4 41-41V757.8c0-112.9-91.9-204.8-204.8-204.8H389.1zM512 102.4c67.8 0 122.9 55.1 122.9 122.9S579.8 348.2 512 348.2 389.1 293 389.1 225.3 444.2 102.4 512 102.4m0-81.9c-113.1 0-204.8 91.7-204.8 204.8S398.9 430.1 512 430.1s204.8-91.7 204.8-204.8S625.1 20.5 512 20.5z" p-id="50394" fill="#1296db"></path><path d="M512.9 665.3c-22.5 0-41 18.4-41 41v81.9c0 22.5 18.4 41 41 41 22.5 0 41-18.4 41-41v-81.9c0-22.6-18.5-41-41-41z" p-id="50395" fill="#1296db"></path></svg>