<?xml version="1.0" standalone="no"?><!DOCTYPE svg PUBLIC "-//W3C//DTD SVG 1.1//EN" "http://www.w3.org/Graphics/SVG/1.1/DTD/svg11.dtd"><svg t="1648177408858" class="icon" viewBox="0 0 1024 1024" version="1.1" xmlns="http://www.w3.org/2000/svg" p-id="14984" xmlns:xlink="http://www.w3.org/1999/xlink" width="270" height="270"><defs><style type="text/css">@font-face { font-family: feedback-iconfont; src: url("//at.alicdn.com/t/font_1031158_u69w8yhxdu.woff2?t=1630033759944") format("woff2"), url("//at.alicdn.com/t/font_1031158_u69w8yhxdu.woff?t=1630033759944") format("woff"), url("//at.alicdn.com/t/font_1031158_u69w8yhxdu.ttf?t=1630033759944") format("truetype"); }
</style></defs><path d="M972.8 0H51.2A51.2 51.2 0 0 0 0 51.2v921.6a51.2 51.2 0 0 0 51.2 51.2h921.6a51.2 51.2 0 0 0 51.2-51.2V51.2A51.2 51.2 0 0 0 972.8 0z m0 972.8H51.2V51.2h921.6z" fill="#1296db" p-id="14985"></path><path d="M179.2 307.2h179.2v25.6a25.6 25.6 0 0 0 51.2 0v-25.6h435.2a25.6 25.6 0 0 0 0-51.2H409.6v-25.6a25.6 25.6 0 0 0-51.2 0V256H179.2a25.6 25.6 0 0 0 0 51.2z m0 204.8H512v25.6a25.6 25.6 0 0 0 51.2 0V512h281.6a25.6 25.6 0 0 0 0-51.2H563.2v-25.6a25.6 25.6 0 0 0-51.2 0v25.6H179.2a25.6 25.6 0 0 0 0 51.2z m0 204.8h486.4v25.6a25.6 25.6 0 0 0 51.2 0v-25.6h128a25.6 25.6 0 0 0 0-51.2h-128V640a25.6 25.6 0 0 0-51.2 0v25.6H179.2a25.6 25.6 0 0 0 0 51.2z" fill="#1296db" p-id="14986"></path></svg>