<?xml version="1.0" standalone="no"?><!DOCTYPE svg PUBLIC "-//W3C//DTD SVG 1.1//EN" "http://www.w3.org/Graphics/SVG/1.1/DTD/svg11.dtd"><svg t="1648179563016" class="icon" viewBox="0 0 1024 1024" version="1.1" xmlns="http://www.w3.org/2000/svg" p-id="36154" xmlns:xlink="http://www.w3.org/1999/xlink" width="270" height="270"><defs><style type="text/css">@font-face { font-family: feedback-iconfont; src: url("//at.alicdn.com/t/font_1031158_u69w8yhxdu.woff2?t=1630033759944") format("woff2"), url("//at.alicdn.com/t/font_1031158_u69w8yhxdu.woff?t=1630033759944") format("woff"), url("//at.alicdn.com/t/font_1031158_u69w8yhxdu.ttf?t=1630033759944") format("truetype"); }
</style></defs><path d="M672.11 946.2c-42.57 0-83.93-13.34-119.06-38.82-44-31.92-72.95-79.06-81.5-132.74-8.55-53.69 4.32-107.48 36.24-151.49s79.06-72.95 132.74-81.5c53.68-8.55 107.48 4.32 151.49 36.24 44 31.92 72.95 79.06 81.5 132.74 17.65 110.82-58.16 215.34-168.98 232.99a205.358 205.358 0 0 1-32.43 2.58z m0.73-343.11c-7.38 0-14.81 0.58-22.24 1.77-75.97 12.1-127.94 83.75-115.84 159.72 5.86 36.8 25.7 69.12 55.87 91 30.17 21.88 67.05 30.7 103.85 24.84 75.97-12.1 127.94-83.75 115.84-159.72-5.86-36.8-25.7-69.12-55.87-91-24.07-17.46-52.43-26.61-81.61-26.61z" p-id="36155" fill="#1296db"></path><path d="M927.78 959.78c-6.51 0-13.09-1.98-18.76-6.1l-116.58-84.56c-14.31-10.38-17.49-30.39-7.12-44.69 10.38-14.31 30.38-17.49 44.69-7.12l116.58 84.56c14.31 10.38 17.49 30.39 7.12 44.69-6.26 8.63-16.03 13.22-25.93 13.22zM927.98 448c-6.81 0-13.67-2.16-19.49-6.64L512 136.37 115.51 441.36c-14.01 10.78-34.1 8.16-44.87-5.85-10.78-14.01-8.16-34.1 5.85-44.87l416-320c11.5-8.85 27.52-8.85 39.02 0l416 320c14.01 10.78 16.63 30.87 5.85 44.87-6.3 8.19-15.79 12.49-25.38 12.49zM344 720h-60c-5.52 0-10-4.48-10-10v-60c0-5.52 4.48-10 10-10h60c5.52 0 10 4.48 10 10v60c0 5.52-4.48 10-10 10zM344 592h-60c-5.52 0-10-4.48-10-10v-60c0-5.52 4.48-10 10-10h60c5.52 0 10 4.48 10 10v60c0 5.52-4.48 10-10 10z" p-id="36156" fill="#1296db"></path><path d="M344 464h-60c-5.52 0-10-4.48-10-10v-60c0-5.52 4.48-10 10-10h60c5.52 0 10 4.48 10 10v60c0 5.52-4.48 10-10 10zM474.5 592h-60c-5.52 0-10-4.48-10-10v-60c0-5.52 4.48-10 10-10h60c5.52 0 10 4.48 10 10v60c0 5.52-4.48 10-10 10zM474.5 464h-60c-5.52 0-10-4.48-10-10v-60c0-5.52 4.48-10 10-10h60c5.52 0 10 4.48 10 10v60c0 5.52-4.48 10-10 10zM605 464h-60c-5.52 0-10-4.48-10-10v-60c0-5.52 4.48-10 10-10h60c5.52 0 10 4.48 10 10v60c0 5.52-4.48 10-10 10z" p-id="36157" fill="#1296db"></path><path d="M491 960H192c-17.67 0-32-14.33-32-32V343c0-17.67 14.33-32 32-32s32 14.33 32 32v553h267c17.67 0 32 14.33 32 32s-14.33 32-32 32z" p-id="36158" fill="#1296db"></path><path d="M832 574c-17.67 0-32-14.33-32-32V343c0-17.67 14.33-32 32-32s32 14.33 32 32v199c0 17.67-14.33 32-32 32z" p-id="36159" fill="#1296db"></path></svg>