<?xml version="1.0" standalone="no"?><!DOCTYPE svg PUBLIC "-//W3C//DTD SVG 1.1//EN" "http://www.w3.org/Graphics/SVG/1.1/DTD/svg11.dtd"><svg t="1648179544950" class="icon" viewBox="0 0 1024 1024" version="1.1" xmlns="http://www.w3.org/2000/svg" p-id="35253" xmlns:xlink="http://www.w3.org/1999/xlink" width="270" height="270"><defs><style type="text/css">@font-face { font-family: feedback-iconfont; src: url("//at.alicdn.com/t/font_1031158_u69w8yhxdu.woff2?t=1630033759944") format("woff2"), url("//at.alicdn.com/t/font_1031158_u69w8yhxdu.woff?t=1630033759944") format("woff"), url("//at.alicdn.com/t/font_1031158_u69w8yhxdu.ttf?t=1630033759944") format("truetype"); }
</style></defs><path d="M927.1 479.9c-7.3 0-14.7-2.5-20.7-7.6L511.2 137.1 116 472.3c-13.5 11.4-33.7 9.8-45.1-3.7-11.4-13.5-9.8-33.7 3.7-45.1L490.5 70.7c11.9-10.1 29.5-10.1 41.4 0l415.9 352.8c13.5 11.4 15.1 31.6 3.7 45.1-6.4 7.5-15.4 11.3-24.4 11.3z" p-id="35254" fill="#1296db"></path><path d="M853.5 958.8H169c-23.1 0-41.9-18.8-41.9-41.9V409.2c0-17.7 14.3-32 32-32s32 14.3 32 32v485.6h640.3V409.2c0-17.7 14.3-32 32-32s32 14.3 32 32V917c0 23-18.8 41.8-41.9 41.8z" p-id="35255" fill="#1296db"></path><path d="M339 830.7h-72c-6.6 0-12-5.4-12-12v-72c0-6.6 5.4-12 12-12h72c6.6 0 12 5.4 12 12v72c0 6.6-5.4 12-12 12zM531.1 830.7h-72c-6.6 0-12-5.4-12-12v-72c0-6.6 5.4-12 12-12h72c6.6 0 12 5.4 12 12v72c0 6.6-5.4 12-12 12zM339 702.9h-72c-6.6 0-12-5.4-12-12v-72c0-6.6 5.4-12 12-12h72c6.6 0 12 5.4 12 12v72c0 6.6-5.4 12-12 12zM339 575.4h-72c-6.6 0-12-5.4-12-12v-72c0-6.6 5.4-12 12-12h72c6.6 0 12 5.4 12 12v72c0 6.6-5.4 12-12 12zM531.1 702.9h-72c-6.6 0-12-5.4-12-12v-72c0-6.6 5.4-12 12-12h72c6.6 0 12 5.4 12 12v72c0 6.6-5.4 12-12 12zM723.1 830.7h-72c-6.6 0-12-5.4-12-12v-72c0-6.6 5.4-12 12-12h72c6.6 0 12 5.4 12 12v72c0 6.6-5.4 12-12 12z" p-id="35256" fill="#1296db"></path></svg>