<?xml version="1.0" standalone="no"?><!DOCTYPE svg PUBLIC "-//W3C//DTD SVG 1.1//EN" "http://www.w3.org/Graphics/SVG/1.1/DTD/svg11.dtd"><svg t="1648179114127" class="icon" viewBox="0 0 1024 1024" version="1.1" xmlns="http://www.w3.org/2000/svg" p-id="28381" xmlns:xlink="http://www.w3.org/1999/xlink" width="270" height="270"><defs><style type="text/css">@font-face { font-family: feedback-iconfont; src: url("//at.alicdn.com/t/font_1031158_u69w8yhxdu.woff2?t=1630033759944") format("woff2"), url("//at.alicdn.com/t/font_1031158_u69w8yhxdu.woff?t=1630033759944") format("woff"), url("//at.alicdn.com/t/font_1031158_u69w8yhxdu.ttf?t=1630033759944") format("truetype"); }
</style></defs><path d="M952.734 586.791l-0.054-0.009c0 0.028-0.008 0.057-0.013 0.086a30.015 30.015 0 1 1-59.167-10.117c0.1-0.586 0.221-1.162 0.353-1.734A389.324 389.324 0 0 0 899 511.98c0-213.736-173.266-387-387-387s-387 173.268-387 387 173.266 387.005 387 387.005v0.031a30 30 0 0 1 0 60c-0.279 0-0.549-0.034-0.826-0.042C264.684 958.527 65 758.58 65 511.985c0-246.872 200.129-447 447-447s447 200.128 447 447a449.817 449.817 0 0 1-6.266 74.806zM692 575.828a30 30 0 0 1 30 30v0.063a30 30 0 0 1-30 30H542v83.125a30 30 0 0 1-60 0v-83.125H332a30 30 0 0 1-30-30v-0.063a30 30 0 0 1 30-30h150v-64.062H332a30 30 0 0 1-30-30v-0.062a30 30 0 0 1 30-30h123.625L349.819 345.765a30.01 30.01 0 0 1 42.414-42.466l119.533 119.682 120.049-120.182a30.016 30.016 0 0 1 42.426 42.473L567.927 451.704H692a30 30 0 0 1 30 30v0.062a30 30 0 0 1-30 30H542v64.062h150z m-59 173.188h295.78a30 30 0 0 1 0 60H705.689l32.226 32.225a30 30 0 0 1-42.427 42.427l-81.3-81.3A29.989 29.989 0 0 1 633 749.016z" fill="#1296db" p-id="28382"></path></svg>