<?xml version="1.0" standalone="no"?><!DOCTYPE svg PUBLIC "-//W3C//DTD SVG 1.1//EN" "http://www.w3.org/Graphics/SVG/1.1/DTD/svg11.dtd"><svg t="1648180027476" class="icon" viewBox="0 0 1024 1024" version="1.1" xmlns="http://www.w3.org/2000/svg" p-id="43904" xmlns:xlink="http://www.w3.org/1999/xlink" width="270" height="270"><defs><style type="text/css">@font-face { font-family: feedback-iconfont; src: url("//at.alicdn.com/t/font_1031158_u69w8yhxdu.woff2?t=1630033759944") format("woff2"), url("//at.alicdn.com/t/font_1031158_u69w8yhxdu.woff?t=1630033759944") format("woff"), url("//at.alicdn.com/t/font_1031158_u69w8yhxdu.ttf?t=1630033759944") format("truetype"); }
</style></defs><path d="M936.256 113.536 199.808 113.536 199.808 1024l505.6 0 0.128-0.128 230.848 0L936.256 113.536 936.256 113.536zM839.68 0 87.616 0l0 896.832 62.464 0L150.08 58.56 839.68 58.56 839.68 0zM307.648 236.672l445.312 0 0 137.664L307.648 374.336 307.648 236.672 307.648 236.672zM307.648 497.984l445.312 0 0 137.664L307.648 635.648 307.648 497.984 307.648 497.984zM307.648 759.168l445.312 0 0 137.664L307.648 896.832 307.648 759.168 307.648 759.168zM307.648 759.168" p-id="43905" fill="#1296db"></path></svg>