<?xml version="1.0" standalone="no"?><!DOCTYPE svg PUBLIC "-//W3C//DTD SVG 1.1//EN" "http://www.w3.org/Graphics/SVG/1.1/DTD/svg11.dtd"><svg t="1648177711616" class="icon" viewBox="0 0 1024 1024" version="1.1" xmlns="http://www.w3.org/2000/svg" p-id="19397" xmlns:xlink="http://www.w3.org/1999/xlink" width="270" height="270"><defs><style type="text/css">@font-face { font-family: feedback-iconfont; src: url("//at.alicdn.com/t/font_1031158_u69w8yhxdu.woff2?t=1630033759944") format("woff2"), url("//at.alicdn.com/t/font_1031158_u69w8yhxdu.woff?t=1630033759944") format("woff"), url("//at.alicdn.com/t/font_1031158_u69w8yhxdu.ttf?t=1630033759944") format("truetype"); }
</style></defs><path d="M52.175238 517.607619c0.048762 11.897905 6.314667 22.869333 16.384 28.672L480.060952 793.112381c19.260952 11.53219 46.201905 11.53219 65.511619 0L956.952381 546.352762c9.99619-5.90019 16.14019-16.847238 16.14019-28.672a33.158095 33.158095 0 0 0-16.14019-28.623238 31.012571 31.012571 0 0 0-31.890286 0.316952h-0.048762l-391.899428 235.056762c-11.385905 6.826667-29.232762 6.826667-40.594286 0l-391.923809-235.032381a31.207619 31.207619 0 0 0-32.182858-0.585143c-10.044952 5.851429-16.237714 16.871619-16.213333 28.769524" fill="#1296db" p-id="19398"></path><path d="M956.952381 656.359619a30.72 30.72 0 0 0-31.865905 0.292571l-391.94819 237.056c-11.410286 6.875429-29.257143 6.875429-40.643048 0L100.571429 656.676571a30.890667 30.890667 0 0 0-32.158477-0.585142 33.645714 33.645714 0 0 0-16.213333 29.110857c0.121905 0.341333 0.219429 0.975238 0.24381 1.657904v0.804572l-0.24381 1.633524c0 11.580952 6.290286 22.503619 16.335238 28.281904l411.550476 245.638096c2.340571 1.414095 4.778667 2.633143 7.314286 3.681524l2.730667 0.902095c2.438095 0.877714 3.82781 1.389714 5.241904 1.755428 0.633905 0.170667 1.243429 0.26819 1.877334 0.390096l3.267047 0.633904c1.048381 0.24381 2.121143 0.487619 3.218286 0.633905 0.75581 0.097524 1.560381 0.121905 2.364953 0.170667l3.510857 0.243809c3.023238 0.292571 5.339429 0.121905 6.656 0l3.218285-0.243809c0.828952-0.048762 1.633524-0.073143 2.438096-0.170667 1.121524-0.146286 2.194286-0.390095 3.315809-0.633905l3.072-0.609523c0.682667-0.121905 1.365333-0.24381 2.023619-0.414477 1.121524-0.292571 2.267429-0.707048 3.413334-1.121523l2.998857-1.024c0.512-0.170667 1.048381-0.316952 1.536-0.536381 2.511238-1.024 4.973714-2.267429 7.314285-3.657143l411.37981-245.589334c2.438095-1.414095 4.656762-3.169524 6.656-5.193142 0.365714-0.365714 0.633905-0.804571 0.926476-1.219048 0.390095-0.609524 0.804571-1.170286 1.26781-1.731048l1.121523-1.389714c0.609524-0.731429 1.219048-1.462857 1.706667-2.267429 0.682667-1.706667 0.926476-2.389333 1.219048-3.023238l0.609524-1.365333c0.536381-1.072762 1.097143-2.194286 1.414095-3.364571a60.220952 60.220952 0 0 1 0.341333-2.852572l0.268191-1.414095c0.24381-1.365333 0.560762-2.706286 0.585142-4.144762l-0.219428-2.267429a12.921905 12.921905 0 0 1 0.195047-2.267428 33.596952 33.596952 0 0 0-16.115809-28.769524M881.859048 349.184c2.023619 1.462857 3.681524 2.486857 5.412571 3.34019l0.316952 0.146286c4.315429 2.048 8.94781 3.096381 13.726477 3.096381 17.871238 0 32.426667-14.799238 32.426666-32.963047 0-13.04381-7.558095-24.868571-19.285333-30.159239L517.827048 52.028952A26.112 26.112 0 0 0 504.56381 48.761905c-4.827429 0-9.654857 1.097143-13.238858 3.267047L52.419048 318.317714c-2.681905 1.633524-3.632762 3.291429-3.632762 4.193524 0 0.902095 0.975238 2.535619 3.632762 4.144762L491.27619 592.993524c7.216762 4.33981 19.382857 4.33981 26.575239 0l271.530666-164.254476c9.97181-5.851429 16.11581-16.798476 16.11581-28.574477s-6.192762-22.674286-16.11581-28.525714a31.061333 31.061333 0 0 0-31.939047 0.292572l-43.203048 25.283047-189.366857 115.321905c-11.361524 6.948571-29.208381 6.92419-40.618667 0L197.729524 338.724571c-6.534095-3.949714-10.288762-9.849905-10.288762-16.188952s3.754667-12.214857 10.288762-16.188952l286.549333-173.836191c11.361524-6.948571 29.184-6.948571 40.594286 0l356.961524 216.697905z" fill="#1296db" p-id="19399"></path></svg>