<?xml version="1.0" standalone="no"?><!DOCTYPE svg PUBLIC "-//W3C//DTD SVG 1.1//EN" "http://www.w3.org/Graphics/SVG/1.1/DTD/svg11.dtd"><svg t="1648180175593" class="icon" viewBox="0 0 1109 1024" version="1.1" xmlns="http://www.w3.org/2000/svg" p-id="46717" xmlns:xlink="http://www.w3.org/1999/xlink" width="292.412109375" height="270"><defs><style type="text/css">@font-face { font-family: feedback-iconfont; src: url("//at.alicdn.com/t/font_1031158_u69w8yhxdu.woff2?t=1630033759944") format("woff2"), url("//at.alicdn.com/t/font_1031158_u69w8yhxdu.woff?t=1630033759944") format("woff"), url("//at.alicdn.com/t/font_1031158_u69w8yhxdu.ttf?t=1630033759944") format("truetype"); }
</style></defs><path d="M665.570715 853.340842a34.131832 34.131832 0 0 0 34.131831 34.131832h375.450147a34.131832 34.131832 0 0 0 0-68.263663h-375.450147a34.131832 34.131832 0 0 0-34.131831 34.131831zM1075.152693 955.736337h-375.450147a34.131832 34.131832 0 0 0 0 68.263663h375.450147a34.131832 34.131832 0 0 0 0-68.263663z" fill="#1296db" p-id="46718"></path><path d="M887.42762 757.771714a34.131832 34.131832 0 1 0 58.024113-35.497105A508.56429 508.56429 0 0 0 662.157532 501.100341a273.054652 273.054652 0 1 0-300.360118 0A512.66011 512.66011 0 0 0 0 989.868168a34.131832 34.131832 0 0 0 68.263663 0 443.71381 443.71381 0 0 1 819.163957-232.096454zM307.186484 273.099706a204.790989 204.790989 0 1 1 204.790989 204.790989 204.790989 204.790989 0 0 1-204.790989-204.790989z" fill="#1296db" p-id="46719"></path></svg>