<?xml version="1.0" standalone="no"?><!DOCTYPE svg PUBLIC "-//W3C//DTD SVG 1.1//EN" "http://www.w3.org/Graphics/SVG/1.1/DTD/svg11.dtd"><svg t="1648177578324" class="icon" viewBox="0 0 1024 1024" version="1.1" xmlns="http://www.w3.org/2000/svg" p-id="16770" xmlns:xlink="http://www.w3.org/1999/xlink" width="270" height="270"><defs><style type="text/css">@font-face { font-family: feedback-iconfont; src: url("//at.alicdn.com/t/font_1031158_u69w8yhxdu.woff2?t=1630033759944") format("woff2"), url("//at.alicdn.com/t/font_1031158_u69w8yhxdu.woff?t=1630033759944") format("woff"), url("//at.alicdn.com/t/font_1031158_u69w8yhxdu.ttf?t=1630033759944") format("truetype"); }
</style></defs><path d="M880.64 185.344H143.36c-11.264 0-20.48 9.216-20.48 20.48v614.4c0 11.264 9.216 20.48 20.48 20.48h737.28c11.264 0 20.48-9.216 20.48-20.48v-614.4c0-11.264-9.216-20.48-20.48-20.48z m-64 463.872H395.264c-7.168 30.72-34.304 53.76-67.584 53.76s-60.416-23.04-67.584-53.76H207.36c-8.704 0-15.36-6.656-15.36-15.36s6.656-15.36 15.36-15.36h52.736c7.168-30.72 34.304-53.76 67.584-53.76s60.416 23.04 67.584 53.76h421.376c8.704 0 15.36 6.656 15.36 15.36s-6.656 15.36-15.36 15.36z m0-241.664h-52.736c-7.168 30.72-34.304 53.76-67.584 53.76s-60.416-23.04-67.584-53.76H207.36c-8.704 0-15.36-6.656-15.36-15.36s6.656-15.36 15.36-15.36h421.376c7.168-30.72 34.304-53.76 67.584-53.76s60.416 23.04 67.584 53.76h52.736c8.704 0 15.36 6.656 15.36 15.36s-6.656 15.36-15.36 15.36z" p-id="16771" fill="#1296db"></path></svg>