<?xml version="1.0" standalone="no"?><!DOCTYPE svg PUBLIC "-//W3C//DTD SVG 1.1//EN" "http://www.w3.org/Graphics/SVG/1.1/DTD/svg11.dtd"><svg t="1648179778181" class="icon" viewBox="0 0 1024 1024" version="1.1" xmlns="http://www.w3.org/2000/svg" p-id="40154" xmlns:xlink="http://www.w3.org/1999/xlink" width="270" height="270"><defs><style type="text/css">@font-face { font-family: feedback-iconfont; src: url("//at.alicdn.com/t/font_1031158_u69w8yhxdu.woff2?t=1630033759944") format("woff2"), url("//at.alicdn.com/t/font_1031158_u69w8yhxdu.woff?t=1630033759944") format("woff"), url("//at.alicdn.com/t/font_1031158_u69w8yhxdu.ttf?t=1630033759944") format("truetype"); }
</style></defs><path d="M910.336 84.992h-803.84c-14.336 0-28.672 14.336-28.672 28.672v566.784c0 14.336 14.336 28.672 28.672 28.672h373.248v172.032H285.696c-14.336 0-28.672 14.336-28.672 28.672s14.336 28.672 28.672 28.672h452.096c14.336 0 28.672-14.336 28.672-28.672s-14.336-28.672-28.672-28.672h-193.536v-172.032h373.248c14.336 0 28.672-14.336 28.672-28.672V113.664c-7.168-14.336-21.504-28.672-35.84-28.672z m-28.672 566.784H135.168V149.504h746.496v502.272z" p-id="40155" fill="#1296db"></path><path d="M372.224 372.224c7.168 0 14.336-7.168 21.504-14.336 14.336-28.672 35.84-57.344 64.512-71.68 57.344-28.672 129.024-7.168 157.696 50.176l-21.504-7.168c-7.168 0-21.504 7.168-21.504 14.336s7.168 21.504 14.336 21.504l71.68 14.336h21.504c7.168 0 7.168-7.168 7.168-14.336l14.336-71.68c0-14.336-7.168-21.504-14.336-21.504s-21.504 7.168-21.504 14.336l-14.336 35.84c-43.008-71.68-136.192-107.52-215.552-71.68-35.84 21.504-64.512 50.176-86.016 93.184 0 7.168 7.168 21.504 14.336 28.672h7.68zM336.384 529.92c14.336 0 21.504-7.168 21.504-14.336l7.168-28.672c21.504 35.84 50.176 64.512 86.016 78.848 21.504 7.168 35.84 7.168 57.344 7.168 21.504 0 50.176-7.168 71.68-14.336 35.84-21.504 71.68-50.176 86.016-93.184 7.168-7.168 0-21.504-14.336-28.672-7.168-7.168-21.504 0-28.672 14.336-14.336 28.672-35.84 57.344-64.512 71.68-28.672 14.336-64.512 14.336-93.184 0-28.672-7.168-50.176-21.504-64.512-50.176l21.504 7.168c7.168 0 21.504 0 21.504-14.336 0-7.168 0-21.504-14.336-21.504l-64.512-21.504h-14.336c-7.168 0-7.168 7.168-7.168 14.336l-14.336 71.68c-7.168 7.168-7.168 21.504 7.168 21.504z" p-id="40156" fill="#1296db"></path></svg>