<?xml version="1.0" standalone="no"?><!DOCTYPE svg PUBLIC "-//W3C//DTD SVG 1.1//EN" "http://www.w3.org/Graphics/SVG/1.1/DTD/svg11.dtd"><svg t="1648180203402" class="icon" viewBox="0 0 1024 1024" version="1.1" xmlns="http://www.w3.org/2000/svg" p-id="48588" xmlns:xlink="http://www.w3.org/1999/xlink" width="270" height="270"><defs><style type="text/css">@font-face { font-family: feedback-iconfont; src: url("//at.alicdn.com/t/font_1031158_u69w8yhxdu.woff2?t=1630033759944") format("woff2"), url("//at.alicdn.com/t/font_1031158_u69w8yhxdu.woff?t=1630033759944") format("woff"), url("//at.alicdn.com/t/font_1031158_u69w8yhxdu.ttf?t=1630033759944") format("truetype"); }
</style></defs><path d="M377 603c24.3 0 44 19.7 44 44v312c0 24.3-19.7 44-44 44H65c-24.3 0-44-19.7-44-44V647c0-24.3 19.7-44 44-44h312z m500 0c24.3 0 44 19.7 44 44v312c0 24.3-19.7 44-44 44H565c-24.3 0-44-19.7-44-44V647c0-24.3 19.7-44 44-44h312zM752.113 51.27L972.73 271.887c17.183 17.183 17.183 45.043 0 62.226L752.113 554.73c-17.183 17.183-45.043 17.183-62.226 0L469.27 334.113c-17.183-17.183-17.183-45.043 0-62.226L689.887 51.27c17.183-17.183 45.043-17.183 62.226 0zM377 103c24.3 0 44 19.7 44 44v312c0 24.3-19.7 44-44 44H65c-24.3 0-44-19.7-44-44V147c0-24.3 19.7-44 44-44h312z" fill="#1296db" p-id="48589"></path></svg>