<?xml version="1.0" standalone="no"?><!DOCTYPE svg PUBLIC "-//W3C//DTD SVG 1.1//EN" "http://www.w3.org/Graphics/SVG/1.1/DTD/svg11.dtd"><svg t="1648177139464" class="icon" viewBox="0 0 1024 1024" version="1.1" xmlns="http://www.w3.org/2000/svg" p-id="13685" width="270" height="270" xmlns:xlink="http://www.w3.org/1999/xlink"><defs><style type="text/css">@font-face { font-family: feedback-iconfont; src: url("//at.alicdn.com/t/font_1031158_u69w8yhxdu.woff2?t=1630033759944") format("woff2"), url("//at.alicdn.com/t/font_1031158_u69w8yhxdu.woff?t=1630033759944") format("woff"), url("//at.alicdn.com/t/font_1031158_u69w8yhxdu.ttf?t=1630033759944") format("truetype"); }
</style></defs><path d="M912.497778 11.377778H111.502222C54.613333 11.377778 11.377778 54.613333 11.377778 111.502222v634.88c0 56.888889 43.235556 100.124444 100.124444 100.124445h800.995556c56.888889 0 100.124444-43.235556 100.124444-100.124445V111.502222c0-56.888889-43.235556-100.124444-100.124444-100.124444z m34.133333 735.004444c0 20.48-13.653333 34.133333-34.133333 34.133334H111.502222c-20.48 0-34.133333-13.653333-34.133333-34.133334V111.502222c0-20.48 13.653333-34.133333 34.133333-34.133333h800.995556c20.48 0 34.133333 13.653333 34.133333 34.133333v634.88zM821.475556 946.631111H202.524444c-18.204444 0-34.133333 15.928889-34.133333 34.133333s15.928889 34.133333 34.133333 34.133334h621.226667c18.204444 0 34.133333-15.928889 34.133333-34.133334-2.275556-20.48-15.928889-34.133333-36.408888-34.133333z" p-id="13686" fill="#1296db"></path><path d="M816.924444 273.066667h-81.92c-11.377778-47.786667-54.613333-84.195556-104.675555-84.195556S534.755556 223.004444 523.377778 273.066667H207.075556c-13.653333 0-25.031111 11.377778-25.031112 22.755555s11.377778 25.031111 25.031112 25.031111h366.364444c-2.275556-6.826667-4.551111-15.928889-4.551111-22.755555 0-9.102222 2.275556-18.204444 4.551111-25.031111 9.102222-20.48 31.857778-34.133333 54.613333-34.133334 20.48 0 40.96 11.377778 52.337778 29.582223 0 2.275556 2.275556 2.275556 2.275556 4.551111 6.826667 15.928889 6.826667 31.857778 0 47.786666H814.648889c13.653333 0 25.031111-11.377778 25.031111-25.031111s-9.102222-22.755556-22.755556-22.755555zM735.004444 320.853333h-50.062222c-4.551111 11.377778-13.653333 22.755556-25.031111 29.582223-13.653333 9.102222-29.582222 9.102222-45.511111 6.826666-15.928889-4.551111-29.582222-13.653333-36.408889-27.306666-2.275556-2.275556-2.275556-4.551111-4.551111-6.826667H523.377778c11.377778 50.062222 54.613333 86.471111 106.951111 86.471111 50.062222-2.275556 93.297778-38.684444 104.675555-88.746667zM816.924444 527.928889H493.795556c-13.653333-45.511111-56.888889-77.368889-104.675556-77.368889-47.786667 0-91.022222 31.857778-104.675556 77.368889H207.075556c-13.653333 0-25.031111 11.377778-25.031112 25.031111s11.377778 25.031111 25.031112 25.031111h75.093333c9.102222 52.337778 54.613333 91.022222 106.951111 91.022222 52.337778 0 97.848889-38.684444 106.951111-91.022222h320.853333c13.653333 0 25.031111-11.377778 25.031112-25.031111s-11.377778-25.031111-25.031112-25.031111z m-370.915555 50.062222c-4.551111 13.653333-13.653333 27.306667-27.306667 34.133333-15.928889 9.102222-34.133333 11.377778-52.337778 4.551112-15.928889-6.826667-29.582222-20.48-36.408888-38.684445-2.275556-6.826667-2.275556-11.377778-2.275556-18.204444 0-11.377778 2.275556-20.48 9.102222-29.582223 11.377778-18.204444 29.582222-29.582222 52.337778-29.582222 20.48 0 40.96 11.377778 52.337778 29.582222 9.102222 13.653333 9.102222 31.857778 4.551111 47.786667z" p-id="13687" fill="#1296db"></path></svg>