<?xml version="1.0" standalone="no"?><!DOCTYPE svg PUBLIC "-//W3C//DTD SVG 1.1//EN" "http://www.w3.org/Graphics/SVG/1.1/DTD/svg11.dtd"><svg t="1648179144387" class="icon" viewBox="0 0 1024 1024" version="1.1" xmlns="http://www.w3.org/2000/svg" p-id="28748" xmlns:xlink="http://www.w3.org/1999/xlink" width="270" height="270"><defs><style type="text/css">@font-face { font-family: feedback-iconfont; src: url("//at.alicdn.com/t/font_1031158_u69w8yhxdu.woff2?t=1630033759944") format("woff2"), url("//at.alicdn.com/t/font_1031158_u69w8yhxdu.woff?t=1630033759944") format("woff"), url("//at.alicdn.com/t/font_1031158_u69w8yhxdu.ttf?t=1630033759944") format("truetype"); }
</style></defs><path d="M865.04448 61.60384h-707.1744A96.43008 96.43008 0 0 0 61.44 158.03392v578.59072a96.41984 96.41984 0 0 0 96.43008 96.43008h321.44384v64.28672H254.3104a32.14336 32.14336 0 1 0 0 64.28672h514.29376a32.14336 32.14336 0 0 0 0-64.28672H543.60064v-64.28672h321.4336c53.25824 0 96.44032-43.17184 96.44032-96.43008V158.03392a96.43008 96.43008 0 0 0-96.43008-96.43008z m-707.1744 64.28672h707.1744a32.1536 32.1536 0 0 1 32.13312 32.1536V608.0512H125.7472V158.03392a32.14336 32.14336 0 0 1 32.13312-32.14336z m739.30752 610.73408a32.14336 32.14336 0 0 1-32.13312 32.1536h-707.1744a32.14336 32.14336 0 0 1-32.13312-32.1536v-64.28672h771.44064v64.28672z" p-id="28749" fill="#1296db"></path><path d="M234.33216 281.89696h328.30464c15.43168 0 23.1424 7.71072 23.1424 23.1424 0 15.42144-7.71072 23.1424-23.1424 23.1424h-328.2944c-15.43168 0-23.1424-7.72096-23.1424-23.1424 0-15.43168 7.71072-23.1424 23.1424-23.1424zM234.33216 419.61472h160.16384c15.43168 0 23.1424 7.71072 23.1424 23.1424 0 15.42144-7.71072 23.1424-23.1424 23.1424h-160.1536c-15.43168 0-23.1424-7.72096-23.1424-23.1424 0-15.43168 7.71072-23.1424 23.1424-23.1424z" p-id="28750" fill="#1296db"></path></svg>