<?xml version="1.0" standalone="no"?><!DOCTYPE svg PUBLIC "-//W3C//DTD SVG 1.1//EN" "http://www.w3.org/Graphics/SVG/1.1/DTD/svg11.dtd"><svg t="1648180264420" class="icon" viewBox="0 0 1024 1024" version="1.1" xmlns="http://www.w3.org/2000/svg" p-id="51263" xmlns:xlink="http://www.w3.org/1999/xlink" width="270" height="270"><defs><style type="text/css">@font-face { font-family: feedback-iconfont; src: url("//at.alicdn.com/t/font_1031158_u69w8yhxdu.woff2?t=1630033759944") format("woff2"), url("//at.alicdn.com/t/font_1031158_u69w8yhxdu.woff?t=1630033759944") format("woff"), url("//at.alicdn.com/t/font_1031158_u69w8yhxdu.ttf?t=1630033759944") format("truetype"); }
</style></defs><path d="M870.4 768h-204.8a153.6 153.6 0 0 1-307.2 0H153.6a51.2 51.2 0 0 1-51.2-51.2v-51.2h102.4v-153.6a307.2 307.2 0 0 1 256-302.08V153.6a51.2 51.2 0 0 1 102.4 0v56.32a307.2 307.2 0 0 1 256 302.08v153.6h102.4v51.2a51.2 51.2 0 0 1-51.2 51.2z m-358.4 51.2a51.2 51.2 0 0 0 51.2-51.2H460.8a51.2 51.2 0 0 0 51.2 51.2z m204.8-307.2a204.8 204.8 0 0 0-204.8-204.8 204.8 204.8 0 0 0-204.8 204.8v153.6h409.6z" fill="#1296db" p-id="51264"></path></svg>