<?xml version="1.0" standalone="no"?><!DOCTYPE svg PUBLIC "-//W3C//DTD SVG 1.1//EN" "http://www.w3.org/Graphics/SVG/1.1/DTD/svg11.dtd"><svg t="1648177774320" class="icon" viewBox="0 0 1025 1024" version="1.1" xmlns="http://www.w3.org/2000/svg" p-id="20700" xmlns:xlink="http://www.w3.org/1999/xlink" width="270.263671875" height="270"><defs><style type="text/css">@font-face { font-family: feedback-iconfont; src: url("//at.alicdn.com/t/font_1031158_u69w8yhxdu.woff2?t=1630033759944") format("woff2"), url("//at.alicdn.com/t/font_1031158_u69w8yhxdu.woff?t=1630033759944") format("woff"), url("//at.alicdn.com/t/font_1031158_u69w8yhxdu.ttf?t=1630033759944") format("truetype"); }
</style></defs><path d="M877.710524 475.426534a146.285087 146.285087 0 0 0-73.142544 20.479912v-219.427631a57.051184 57.051184 0 0 0-57.782609-57.051184h-219.427631a139.702258 139.702258 0 0 0 21.211338-73.142544 146.285087 146.285087 0 0 0-292.570175 0 146.285087 146.285087 0 0 0 20.479912 73.142544H62.902588a63.634013 63.634013 0 0 0-62.902588 63.634013v212.844802a139.702258 139.702258 0 0 1 73.142544-20.479912 146.285087 146.285087 0 0 1 0 292.570175 139.702258 139.702258 0 0 1-73.142544-20.479913v219.427631a57.051184 57.051184 0 0 0 57.051184 57.051184h689.734187a57.051184 57.051184 0 0 0 57.782609-57.051184v-219.427631a146.285087 146.285087 0 1 0 73.142544-272.090262z" p-id="20701" fill="#1296db"></path></svg>