<?xml version="1.0" standalone="no"?><!DOCTYPE svg PUBLIC "-//W3C//DTD SVG 1.1//EN" "http://www.w3.org/Graphics/SVG/1.1/DTD/svg11.dtd"><svg t="1648179419422" class="icon" viewBox="0 0 1024 1024" version="1.1" xmlns="http://www.w3.org/2000/svg" p-id="34042" xmlns:xlink="http://www.w3.org/1999/xlink" width="270" height="270"><defs><style type="text/css">@font-face { font-family: feedback-iconfont; src: url("//at.alicdn.com/t/font_1031158_u69w8yhxdu.woff2?t=1630033759944") format("woff2"), url("//at.alicdn.com/t/font_1031158_u69w8yhxdu.woff?t=1630033759944") format("woff"), url("//at.alicdn.com/t/font_1031158_u69w8yhxdu.ttf?t=1630033759944") format("truetype"); }
</style></defs><path d="M172.06272 862.17728h702.68928c22.81472-2.27328 20.5312 4.56704 20.5312-20.5312v-57.0368c0-31.92832-6.84032-38.77888-38.78912-38.77888H719.616c-18.25792-13.68064-20.54144-31.93856-25.09824-36.49536-79.85152-88.97536-34.22208-148.28544 15.9744-230.41024 9.1136-11.40736 18.24768-22.81472 25.088-36.5056 20.5312-36.49536 31.9488-77.568 31.9488-123.1872C767.51872 177.78688 653.44512 61.44 509.70624 61.44 368.27136 61.44 251.91424 175.5136 251.91424 319.232c0 59.31008 20.5312 114.06336 54.75328 157.40928 54.75328 86.69184 143.72864 157.40928 0 269.18912H169.7792c-25.088 0-38.77888 13.69088-38.77888 38.78912v59.31008c0 22.81472 15.9744 18.24768 41.0624 18.24768z m762.0096 38.78912H92.2112A20.44928 20.44928 0 0 0 71.68 921.4976v20.5312C71.68 953.43616 80.80384 962.56 92.2112 962.56h839.5776A20.44928 20.44928 0 0 0 952.32 942.0288V921.4976c0-11.40736-9.12384-20.5312-18.24768-20.5312z" p-id="34043" fill="#1296db"></path></svg>