<?xml version="1.0" standalone="no"?><!DOCTYPE svg PUBLIC "-//W3C//DTD SVG 1.1//EN" "http://www.w3.org/Graphics/SVG/1.1/DTD/svg11.dtd"><svg t="1648178935274" class="icon" viewBox="0 0 1024 1024" version="1.1" xmlns="http://www.w3.org/2000/svg" p-id="27099" xmlns:xlink="http://www.w3.org/1999/xlink" width="270" height="270"><defs><style type="text/css">@font-face { font-family: feedback-iconfont; src: url("//at.alicdn.com/t/font_1031158_u69w8yhxdu.woff2?t=1630033759944") format("woff2"), url("//at.alicdn.com/t/font_1031158_u69w8yhxdu.woff?t=1630033759944") format("woff"), url("//at.alicdn.com/t/font_1031158_u69w8yhxdu.ttf?t=1630033759944") format("truetype"); }
</style></defs><path d="M570.84 832.746v62.766c0 40.435-32.025 73.488-71.924 73.488H101.964l-1.272-0.083c-34.321-2.23-61.728-29.487-65.16-64.06a45.753 45.753 0 0 1-0.3-11.546V729.612l53.75 21.312a47.845 47.845 0 0 0 17.94 3.392l0.15-0.001h0.253c22.1 0.096 42.443-13.593 52.033-35.368l0.31-0.703 0.337-0.69c3.918-8.03 5.92-16.994 5.816-26.083l-0.007-0.601 0.011-0.601c0.332-17.362-5.975-34.075-17.385-46.265-11.022-11.777-25.868-18.336-41.307-18.333h-0.211a47.845 47.845 0 0 0-17.94 3.391l-53.75 21.312V489.262c0-42.322 33.485-76.908 75.188-76.908h55.473a141.163 141.163 0 0 1 7.904-41.79C192.633 313.512 244.5 275 303.036 275c58.535 0 110.402 38.51 129.24 95.565a141.163 141.163 0 0 1 7.903 41.79h58.737c39.899 0 71.925 33.053 71.925 73.488v63.487a120.575 120.575 0 0 1 24.507 3.912h7.637l5.837 1.868C666.115 573.44 705 628.188 705 689.993c0 61.357-38.332 115.796-95.006 134.503a128.933 128.933 0 0 1-39.153 8.25z m14.139-210.92l-4.46-1.468a51.954 51.954 0 0 0-32.618 0l-8.153 2.685-4.594-1.185-32.868 8.48V485.842c0-3.001-1.817-4.904-3.37-4.904H353.581l13.941-39.128c5.592-15.693 5.592-33.027 0-48.72l-0.133-0.374-0.122-0.376c-9.575-29.357-35.472-48.756-64.231-48.756-28.759 0-54.656 19.399-64.23 48.756l-0.123 0.376-0.133 0.373c-5.592 15.694-5.592 33.028 0 48.72l13.94 39.129H110.42c-3.356 0-6.634 3.434-6.634 8.323v67.858c1.15-0.028 2.301-0.039 3.453-0.033 34.442 0.018 67.339 14.5 91.243 40.04 23.57 25.18 36.448 59.02 35.894 94.006 0.154 19.416-4.13 38.605-12.514 55.99-20.578 46.186-65.29 75.93-114.683 75.777-1.132 0.005-2.263-0.006-3.393-0.034v75.483c0.122 0.749 0.423 1.353 0.823 1.773 0.145 0.152 0.256 0.242 0.345 0.293h393.962c1.553 0 3.37-1.902 3.37-4.903V744.558l39.932 15.61c14.204 5.553 29.78 5.553 43.984 0l0.859-0.335 0.878-0.281c28.612-9.155 48.506-37.31 48.506-69.559 0-30.756-18.095-57.788-44.59-68.166h-6.876z" p-id="27100" fill="#1296db"></path><path d="M1001 382.828c0 64.541-48.673 117.554-110.397 121.303v52.182c0 35.039-27.695 63.687-62.194 63.687H669.273l-10.168-10.4c-9.104-9.312-20.336-15.872-32.546-19.038l-25.952-6.73V443.045h-72.19l14.84-45.586a44.111 44.111 0 0 0 2.15-14.193l-0.001-0.156-0.001-0.125v-0.157c0-28.885-21.793-51.97-48.24-51.97h-0.176c-5.009-0.03-9.987 0.91-14.701 2.779L435 352.389V212.235c0-36.634 28.93-66.578 64.954-66.578h45.585C548.489 81.4 599.705 30 662.802 30c63.106 0 114.333 51.418 117.264 115.657h48.343c34.5 0 62.194 28.648 62.194 63.686v52.182C952.327 265.275 1001 318.288 1001 382.828z m-136.651-58.233l-32.932 11.956V209.343c0-2.5-1.567-4.141-3.008-4.141H705.514l12.013-33.246a58.86 58.86 0 0 0 3.486-20.306v-0.135c0-34.438-26.283-61.97-58.211-61.97-31.846 0-58.075 27.39-58.21 61.703a73.942 73.942 0 0 0 3.706 21.35l10.786 32.604h-119.13c-2.965 0-5.768 2.936-5.768 7.033v59.111a97.68 97.68 0 0 1 3.08-0.033c59.45 0.041 107.244 50.08 107.325 111.36l0.006 0.823c14.8 0.083 28.934 6.247 39.281 17.086 10.41 10.906 16.114 25.62 15.915 40.838v97.82c12.18 5.257 23.536 12.408 33.672 21.215h134.944c1.44 0 3.008-1.642 3.008-4.142V429.106l32.932 11.955a62.438 62.438 0 0 0 19.547 3.737c31.797-0.168 57.918-27.638 57.918-61.97 0-34.332-26.121-61.801-57.918-61.969a62.438 62.438 0 0 0-19.547 3.736z" p-id="27101" fill="#1296db"></path></svg>