<?xml version="1.0" standalone="no"?><!DOCTYPE svg PUBLIC "-//W3C//DTD SVG 1.1//EN" "http://www.w3.org/Graphics/SVG/1.1/DTD/svg11.dtd"><svg t="1648179274918" class="icon" viewBox="0 0 1024 1024" version="1.1" xmlns="http://www.w3.org/2000/svg" p-id="32661" xmlns:xlink="http://www.w3.org/1999/xlink" width="270" height="270"><defs><style type="text/css">@font-face { font-family: feedback-iconfont; src: url("//at.alicdn.com/t/font_1031158_u69w8yhxdu.woff2?t=1630033759944") format("woff2"), url("//at.alicdn.com/t/font_1031158_u69w8yhxdu.woff?t=1630033759944") format("woff"), url("//at.alicdn.com/t/font_1031158_u69w8yhxdu.ttf?t=1630033759944") format("truetype"); }
</style></defs><path d="M992 0H32a32 32 0 0 0-32 32v960a32 32 0 0 0 32 32h960a32 32 0 0 0 32-32V32a32 32 0 0 0-32-32zM960 64v704H64V64zM64 960v-128h896v128z" p-id="32662" fill="#1296db"></path><path d="M352 640A224 224 0 1 0 128 416 224 224 0 0 0 352 640z m0-384A160 160 0 1 1 192 416 160 160 0 0 1 352 256zM672 320h192a32 32 0 0 0 0-64h-192a32 32 0 0 0 0 64zM672 576h192a32 32 0 0 0 0-64h-192a32 32 0 0 0 0 64z" p-id="32663" fill="#1296db"></path></svg>