<?xml version="1.0" standalone="no"?><!DOCTYPE svg PUBLIC "-//W3C//DTD SVG 1.1//EN" "http://www.w3.org/Graphics/SVG/1.1/DTD/svg11.dtd"><svg t="1648177730939" class="icon" viewBox="0 0 1024 1024" version="1.1" xmlns="http://www.w3.org/2000/svg" p-id="19658" xmlns:xlink="http://www.w3.org/1999/xlink" width="270" height="270"><defs><style type="text/css">@font-face { font-family: feedback-iconfont; src: url("//at.alicdn.com/t/font_1031158_u69w8yhxdu.woff2?t=1630033759944") format("woff2"), url("//at.alicdn.com/t/font_1031158_u69w8yhxdu.woff?t=1630033759944") format("woff"), url("//at.alicdn.com/t/font_1031158_u69w8yhxdu.ttf?t=1630033759944") format("truetype"); }
</style></defs><path d="M149.333 213.333H192a21.333 21.333 0 0 1 21.333 21.334v42.666A21.333 21.333 0 0 1 192 298.667h-42.667A21.333 21.333 0 0 1 128 277.333v-42.666a21.333 21.333 0 0 1 21.333-21.334z m725.334 0H320a21.333 21.333 0 0 0-21.333 21.334v42.666A21.333 21.333 0 0 0 320 298.667h554.667A21.333 21.333 0 0 0 896 277.333v-42.666a21.333 21.333 0 0 0-21.333-21.334zM128 490.667v42.666a21.333 21.333 0 0 0 21.333 21.334H192a21.333 21.333 0 0 0 21.333-21.334v-42.666A21.333 21.333 0 0 0 192 469.333h-42.667A21.333 21.333 0 0 0 128 490.667z m746.667-21.334H320a21.333 21.333 0 0 0-21.333 21.334v42.666A21.333 21.333 0 0 0 320 554.667h554.667A21.333 21.333 0 0 0 896 533.333v-42.666a21.333 21.333 0 0 0-21.333-21.334zM128 746.667v42.666a21.333 21.333 0 0 0 21.333 21.334H192a21.333 21.333 0 0 0 21.333-21.334v-42.666A21.333 21.333 0 0 0 192 725.333h-42.667A21.333 21.333 0 0 0 128 746.667z m746.667-21.334H320a21.333 21.333 0 0 0-21.333 21.334v42.666A21.333 21.333 0 0 0 320 810.667h554.667A21.333 21.333 0 0 0 896 789.333v-42.666a21.333 21.333 0 0 0-21.333-21.334z" fill="#1296db" p-id="19659"></path></svg>