<?xml version="1.0" standalone="no"?><!DOCTYPE svg PUBLIC "-//W3C//DTD SVG 1.1//EN" "http://www.w3.org/Graphics/SVG/1.1/DTD/svg11.dtd"><svg t="1648177301184" class="icon" viewBox="0 0 1024 1024" version="1.1" xmlns="http://www.w3.org/2000/svg" p-id="14380" width="270" height="270" xmlns:xlink="http://www.w3.org/1999/xlink"><defs><style type="text/css">@font-face { font-family: feedback-iconfont; src: url("//at.alicdn.com/t/font_1031158_u69w8yhxdu.woff2?t=1630033759944") format("woff2"), url("//at.alicdn.com/t/font_1031158_u69w8yhxdu.woff?t=1630033759944") format("woff"), url("//at.alicdn.com/t/font_1031158_u69w8yhxdu.ttf?t=1630033759944") format("truetype"); }
</style></defs><path d="M147.6 798.2h502c69.7 0 126.5-56.7 126.5-126.5v-502c0-69.7-56.7-126.5-126.5-126.5H530.7c-20.4 0-37 16.6-37 37s16.6 37 37 37h118.9c29 0 52.6 23.6 52.6 52.6v502c0 29-23.6 52.6-52.6 52.6h-502c-29 0-52.6-23.6-52.6-52.6V430c0-20.4-16.6-37-37-37s-37 16.6-37 37v241.6c0.1 69.8 56.9 126.6 126.6 126.6zM932.1 769V91.2h46.1c20.4 0 37-16.6 37-37s-16.6-37-37-37h-88.7c-20.4 0-37 16.6-37 37 0 7.5 2.3 14.5 6.1 20.3-0.3 1.8-0.4 3.7-0.4 5.6v677.7C796.9 766 748.6 815.9 743 877.9H45.8c-20.4 0-37 16.6-37 37s16.6 37 37 37h711.7c22.3 42.7 67 71.8 118.4 71.8 73.6 0 133.5-59.9 133.5-133.5 0.1-53.6-31.6-99.9-77.3-121.2z m-56.2 180.8c-32.9 0-59.6-26.7-59.6-59.6s26.7-59.6 59.6-59.6c32.9 0 59.6 26.7 59.6 59.6s-26.7 59.6-59.6 59.6zM360.7 642.1h94.6c20.4 0 37-16.6 37-37s-16.6-37-37-37h-94.6c-20.4 0-37 16.6-37 37s16.6 37 37 37z m63-166.4c0 20.4 16.6 37 37 37h94.6c20.4 0 37-16.6 37-37s-16.6-37-37-37h-94.6c-20.5 0.1-37 16.6-37 37z m-24.8-141.8c20.4 0 37-16.6 37-37V176c0-20.4-16.6-37-37-37s-37 16.6-37 37v121c0.1 20.3 16.6 36.9 37 36.9z m-156.4 0c20.4 0 37-16.6 37-37V92.6c0-20.4-16.6-37-37-37s-37 16.6-37 37v204.3c0 20.4 16.6 37 37 37z m-148.4 0c20.4 0 37-16.6 37-37V37.3c0-20.4-16.6-37-37-37s-37 16.6-37 37V297c0 20.3 16.6 36.9 37 36.9z" p-id="14381" fill="#1296db"></path></svg>