<?xml version="1.0" standalone="no"?><!DOCTYPE svg PUBLIC "-//W3C//DTD SVG 1.1//EN" "http://www.w3.org/Graphics/SVG/1.1/DTD/svg11.dtd"><svg t="1648178846662" class="icon" viewBox="0 0 1024 1024" version="1.1" xmlns="http://www.w3.org/2000/svg" p-id="24715" xmlns:xlink="http://www.w3.org/1999/xlink" width="270" height="270"><defs><style type="text/css">@font-face { font-family: feedback-iconfont; src: url("//at.alicdn.com/t/font_1031158_u69w8yhxdu.woff2?t=1630033759944") format("woff2"), url("//at.alicdn.com/t/font_1031158_u69w8yhxdu.woff?t=1630033759944") format("woff"), url("//at.alicdn.com/t/font_1031158_u69w8yhxdu.ttf?t=1630033759944") format("truetype"); }
</style></defs><path d="M249.6 678.4H64c0 243.2 121.6 243.2 121.6 243.2h556.8c185.6 0 185.6-121.6 185.6-121.6V192c0-70.4-57.6-128-128-128H377.6c-70.4 0-128 57.6-128 128v486.4zM192 864c-12.8 0-51.2-25.6-64-121.6h486.4c38.4 0 64 25.6 64 64v57.6H192z m550.4 0v-57.6c0-70.4-57.6-128-128-128H307.2V192c0-38.4 25.6-64 64-64h428.8c38.4 0 64 25.6 64 64v614.4c0-6.4 0 57.6-121.6 57.6z m57.6-582.4c0 19.2-12.8 32-32 32H403.2c-19.2-6.4-32-19.2-32-32 0-19.2 12.8-32 32-32h371.2c12.8 0 25.6 12.8 25.6 32zM403.2 371.2h371.2c19.2 0 32 12.8 32 32s-12.8 32-32 32H403.2c-19.2 0-32-12.8-32-32s12.8-32 32-32z m0 121.6h371.2c19.2 0 32 12.8 32 32s-12.8 32-32 32H403.2c-19.2 0-32-12.8-32-32s12.8-32 32-32z" p-id="24716" fill="#1296db"></path></svg>