<?xml version="1.0" standalone="no"?><!DOCTYPE svg PUBLIC "-//W3C//DTD SVG 1.1//EN" "http://www.w3.org/Graphics/SVG/1.1/DTD/svg11.dtd"><svg t="1648179405737" class="icon" viewBox="0 0 1024 1024" version="1.1" xmlns="http://www.w3.org/2000/svg" p-id="33774" xmlns:xlink="http://www.w3.org/1999/xlink" width="270" height="270"><defs><style type="text/css">@font-face { font-family: feedback-iconfont; src: url("//at.alicdn.com/t/font_1031158_u69w8yhxdu.woff2?t=1630033759944") format("woff2"), url("//at.alicdn.com/t/font_1031158_u69w8yhxdu.woff?t=1630033759944") format("woff"), url("//at.alicdn.com/t/font_1031158_u69w8yhxdu.ttf?t=1630033759944") format("truetype"); }
</style></defs><path d="M848.457143 0c96.943543 0 175.542857 78.599314 175.542857 175.542857v672.914286c0 96.943543-78.599314 175.542857-175.542857 175.542857H175.542857C78.599314 1024 0 945.400686 0 848.457143V175.542857C0 78.599314 78.599314 0 175.542857 0h672.914286zM617.135543 509.717943a63.970743 63.970743 0 0 0-63.985372 64 64.073143 64.073143 0 0 0 45.699658 61.366857v20.918857h-82.271086a9.172114 9.172114 0 0 0-9.157486 9.142857v86.849829c0 5.032229 4.125257 9.142857 9.157486 9.142857h201.142857a9.172114 9.172114 0 0 0 9.128229-9.142857V665.161143a9.172114 9.172114 0 0 0-9.128229-9.142857h-82.300343v-20.918857a64.014629 64.014629 0 0 0 45.728914-61.366858 63.970743 63.970743 0 0 0-64.014628-64z m64.014628-246.857143h-365.714285c-10.122971 0-18.285714 8.162743-18.285715 18.285714v448c0 10.108343 8.162743 18.285714 18.285715 18.285715h150.849828c2.516114 0 4.578743-2.048 4.578743-4.578743v-31.992686a4.578743 4.578743 0 0 0-4.578743-4.578743h-128v-402.285714H658.285714v182.857143c0 2.516114 2.048 4.578743 4.578743 4.578743H694.857143c2.516114 0 4.578743-2.048 4.578743-4.578743V281.161143c0-10.122971-8.192-18.285714-18.285715-18.285714z m10.283886 428.573257v34.274743H542.851657v-34.274743h148.5824z m-74.283886-146.285714a28.584229 28.584229 0 1 1-0.029257 57.153828 28.584229 28.584229 0 0 1 0.029257-57.153828zM493.714286 444.562286h-105.150172a4.578743 4.578743 0 0 0-4.564114 4.564114v27.428571c0 2.516114 2.048 4.578743 4.578743 4.578743h105.135543c2.516114 0 4.578743-2.062629 4.578743-4.578743v-27.428571a4.578743 4.578743 0 0 0-4.578743-4.564114z m114.293028-82.285715h-219.428571a4.578743 4.578743 0 0 0-4.578743 4.564115v27.428571c0 2.516114 2.048 4.578743 4.578743 4.578743h219.428571c2.501486 0 4.564114-2.062629 4.564115-4.578743v-27.428571a4.578743 4.578743 0 0 0-4.578743-4.564115z" p-id="33775" fill="#1296db"></path></svg>