<?xml version="1.0" standalone="no"?><!DOCTYPE svg PUBLIC "-//W3C//DTD SVG 1.1//EN" "http://www.w3.org/Graphics/SVG/1.1/DTD/svg11.dtd"><svg t="1648178801183" class="icon" viewBox="0 0 1024 1024" version="1.1" xmlns="http://www.w3.org/2000/svg" p-id="21569" xmlns:xlink="http://www.w3.org/1999/xlink" width="270" height="270"><defs><style type="text/css">@font-face { font-family: feedback-iconfont; src: url("//at.alicdn.com/t/font_1031158_u69w8yhxdu.woff2?t=1630033759944") format("woff2"), url("//at.alicdn.com/t/font_1031158_u69w8yhxdu.woff?t=1630033759944") format("woff"), url("//at.alicdn.com/t/font_1031158_u69w8yhxdu.ttf?t=1630033759944") format("truetype"); }
</style></defs><path d="M935.32768 204.815842h-182.178218a244.884488 244.884488 0 0 0-483.168317 0H87.802927A69.966997 69.966997 0 0 0 16.515799 278.743234l59.40594 682.508251a70.627063 70.627063 0 0 0 72.607261 62.706271h726.072607a70.627063 70.627063 0 0 0 71.287129-62.706271L1006.614809 278.743234a69.966997 69.966997 0 0 0-71.287129-73.927392zM511.565304 66.862046a177.557756 177.557756 0 0 1 175.577557 137.953796H335.987746A177.557756 177.557756 0 0 1 511.565304 66.862046zM87.802927 270.822442h847.524753a7.260726 7.260726 0 0 1 5.280528 0l-11.881188 137.953796H94.403587L82.522399 272.80264a5.940594 5.940594 0 0 1 5.280528-1.980198zM874.601607 957.951155H148.529a6.60066 6.60066 0 0 1-5.280528 0l-42.90429-481.188119h822.442244l-41.584159 479.207921a6.60066 6.60066 0 0 1-6.60066 1.980198z" fill="#1296db" p-id="21570"></path></svg>