<?xml version="1.0" standalone="no"?><!DOCTYPE svg PUBLIC "-//W3C//DTD SVG 1.1//EN" "http://www.w3.org/Graphics/SVG/1.1/DTD/svg11.dtd"><svg t="1648177347499" class="icon" viewBox="0 0 1024 1024" version="1.1" xmlns="http://www.w3.org/2000/svg" p-id="14785" xmlns:xlink="http://www.w3.org/1999/xlink" width="270" height="270"><defs><style type="text/css">@font-face { font-family: feedback-iconfont; src: url("//at.alicdn.com/t/font_1031158_u69w8yhxdu.woff2?t=1630033759944") format("woff2"), url("//at.alicdn.com/t/font_1031158_u69w8yhxdu.woff?t=1630033759944") format("woff"), url("//at.alicdn.com/t/font_1031158_u69w8yhxdu.ttf?t=1630033759944") format("truetype"); }
</style></defs><path d="M845.824 492.817067A307.2 307.2 0 0 0 557.738667 1024H129.706667C76.868267 1024 34.133333 982.357333 34.133333 930.884267V93.115733C34.133333 41.642667 76.868267 0 129.6384 0h620.7488c25.258667 0 49.629867 9.8304 67.515733 27.306667 17.885867 17.408 27.989333 41.096533 27.989334 65.809066v399.701334zM989.866667 751.138133v69.085867a12.014933 12.014933 0 0 1-2.525867 7.168 9.489067 9.489067 0 0 1-6.144 4.027733l-57.617067 8.738134a198.792533 198.792533 0 0 1-12.0832 28.2624c7.236267 10.376533 18.295467 24.712533 33.245867 43.008a12.014933 12.014933 0 0 1 3.140267 7.714133 10.376533 10.376533 0 0 1-2.798934 7.168 315.5968 315.5968 0 0 1-30.856533 33.5872c-14.882133 14.7456-24.644267 22.1184-29.218133 22.1184a15.1552 15.1552 0 0 1-8.055467-2.798933l-43.008-33.5872a176.810667 176.810667 0 0 1-28.2624 11.810133 498.824533 498.824533 0 0 1-9.0112 57.821867c-1.4336 5.870933-5.188267 8.738133-11.195733 8.738133H716.3904a11.741867 11.741867 0 0 1-7.645867-2.6624 9.216 9.216 0 0 1-3.549866-6.690133l-8.738134-57.207467a192.238933 192.238933 0 0 1-27.989333-11.537067l-43.8272 33.314134a11.195733 11.195733 0 0 1-7.7824 2.730666 10.717867 10.717867 0 0 1-7.7824-3.413333c-26.146133-23.620267-43.281067-41.028267-51.336533-52.224a12.151467 12.151467 0 0 1 0.273066-14.336 656.725333 656.725333 0 0 1 15.906134-20.6848c7.509333-9.4208 13.038933-16.725333 16.7936-21.845333a153.941333 153.941333 0 0 1-12.765867-30.856534l-56.9344-8.3968a9.8304 9.8304 0 0 1-6.485333-3.8912 11.741867 11.741867 0 0 1-2.525867-7.304533v-69.085867c0-2.4576 0.8192-4.846933 2.525867-7.168 1.365333-2.048 3.413333-3.4816 5.870933-4.027733l57.890133-8.738133c2.8672-9.557333 6.9632-19.114667 12.0832-28.603734a692.565333 692.565333 0 0 0-33.245866-42.939733 11.6736 11.6736 0 0 1-3.140267-7.441067 12.970667 12.970667 0 0 1 2.798933-7.168c5.461333-7.509333 15.633067-18.6368 30.72-33.450666 15.018667-14.813867 24.7808-22.254933 29.354667-22.254934 2.730667 0 5.393067 1.092267 8.055467 3.140267l42.939733 33.245867a176.810667 176.810667 0 0 1 28.330667-11.810134c3.2768-28.194133 6.280533-47.5136 9.0112-57.821866 1.365333-5.802667 5.188267-8.738133 11.195733-8.738134h69.085867a11.605333 11.605333 0 0 1 7.5776 2.6624c2.184533 1.774933 3.413333 3.959467 3.618133 6.690134l8.669867 57.207466c10.24 3.345067 19.524267 7.168 27.989333 11.537067l44.2368-33.314133a10.103467 10.103467 0 0 1 7.441067-2.730667 12.288 12.288 0 0 1 7.7824 3.072c26.760533 24.644267 43.8272 42.325333 51.336533 52.8384a10.0352 10.0352 0 0 1 2.116267 6.826667 12.014933 12.014933 0 0 1-2.4576 7.236266 632.968533 632.968533 0 0 1-15.837867 20.6848c-7.509333 9.4208-13.1072 16.725333-16.7936 21.845334 5.393067 10.4448 9.557333 20.616533 12.6976 30.583466l56.9344 8.669867a9.8304 9.8304 0 0 1 6.5536 3.8912c1.6384 2.048 2.525867 4.7104 2.525867 7.304533z m-159.266134 33.928534a76.731733 76.731733 0 0 0-23.3472-56.32 76.731733 76.731733 0 0 0-56.32-23.3472 76.731733 76.731733 0 0 0-56.32 23.3472 76.731733 76.731733 0 0 0-23.3472 56.32c0 21.981867 7.7824 40.7552 23.3472 56.32 14.7456 15.223467 35.157333 23.620267 56.32 23.3472 21.162667 0.273067 41.5744-8.192 56.32-23.3472 15.223467-14.7456 23.688533-35.157333 23.3472-56.32zM439.978667 558.557867a24.1664 24.1664 0 0 0 16.930133-6.826667 23.005867 23.005867 0 0 0 0-32.904533 24.1664 24.1664 0 0 0-16.930133-6.826667H201.250133a23.552 23.552 0 0 0-23.893333 23.210667c0 6.212267 2.525867 12.151467 7.031467 16.520533 4.437333 4.369067 10.513067 6.826667 16.861866 6.826667h238.728534z m191.010133-186.1632a24.1664 24.1664 0 0 0 16.861867-6.826667 23.005867 23.005867 0 0 0 0-32.904533 24.1664 24.1664 0 0 0-16.861867-6.826667H201.250133a24.1664 24.1664 0 0 0-16.861866 6.826667 23.005867 23.005867 0 0 0-7.031467 16.384c0 12.9024 10.717867 23.3472 23.893333 23.3472h429.738667z m0-186.231467a24.1664 24.1664 0 0 0 16.861867-6.826667 23.005867 23.005867 0 0 0 0-32.904533 24.1664 24.1664 0 0 0-16.861867-6.826667H201.250133a23.552 23.552 0 0 0-23.893333 23.278934c0 12.9024 10.717867 23.278933 23.893333 23.278933h429.738667z" p-id="14786" fill="#1296db"></path></svg>