<?xml version="1.0" standalone="no"?><!DOCTYPE svg PUBLIC "-//W3C//DTD SVG 1.1//EN" "http://www.w3.org/Graphics/SVG/1.1/DTD/svg11.dtd"><svg t="1648177677624" class="icon" viewBox="0 0 1024 1024" version="1.1" xmlns="http://www.w3.org/2000/svg" p-id="17644" xmlns:xlink="http://www.w3.org/1999/xlink" width="270" height="270"><defs><style type="text/css">@font-face { font-family: feedback-iconfont; src: url("//at.alicdn.com/t/font_1031158_u69w8yhxdu.woff2?t=1630033759944") format("woff2"), url("//at.alicdn.com/t/font_1031158_u69w8yhxdu.woff?t=1630033759944") format("woff"), url("//at.alicdn.com/t/font_1031158_u69w8yhxdu.ttf?t=1630033759944") format("truetype"); }
</style></defs><path d="M457.28 11.136a96 96 0 0 1 89.728 0l406.08 214.656a96 96 0 0 1 0 169.728l-21.056 11.136 21.12 11.136a96 96 0 0 1 8.192 164.864l-8.256 4.864-21.056 11.136 21.12 11.136a96 96 0 0 1 8.192 164.864l-8.256 4.864-406.08 214.656a96 96 0 0 1-81.152 4.032l-8.576-4.032L51.136 779.52A96 96 0 0 1 42.88 614.72l8.32-4.928 20.992-11.136-21.056-11.136A96 96 0 0 1 42.88 422.72l8.32-4.928 20.992-11.136-21.056-11.136a96 96 0 0 1-43.904-121.344l3.904-8.32A96 96 0 0 1 51.2 225.728z m407.488 623.04l-317.76 168a96 96 0 0 1-81.152 4.032l-8.576-4.032L140.608 634.88l-59.52 31.552a32 32 0 0 0-4.864 53.44l4.864 3.2 406.08 214.592a32 32 0 0 0 24.128 2.368l5.76-2.368 406.144-214.656a32 32 0 0 0 4.864-53.44l-4.864-3.136-58.432-32.192z m-1.216-191.36L547.008 610.176a96 96 0 0 1-89.728 0L140.608 442.88l-59.52 31.552a32 32 0 0 0-4.864 53.44l4.864 3.2 406.08 214.592a32 32 0 0 0 24.128 2.368l5.76-2.368 406.144-214.656a32 32 0 0 0 4.864-53.44l-4.864-3.136-59.648-31.552zM517.056 67.712a32 32 0 0 0-29.888 0L81.088 282.368a32 32 0 0 0 0 56.576L487.168 553.6a32 32 0 0 0 29.888 0l406.144-214.656a32 32 0 0 0 0-56.576z" p-id="17645" fill="#1296db"></path></svg>