<?xml version="1.0" standalone="no"?><!DOCTYPE svg PUBLIC "-//W3C//DTD SVG 1.1//EN" "http://www.w3.org/Graphics/SVG/1.1/DTD/svg11.dtd"><svg t="1648180490059" class="icon" viewBox="0 0 1024 1024" version="1.1" xmlns="http://www.w3.org/2000/svg" p-id="53159" xmlns:xlink="http://www.w3.org/1999/xlink" width="270" height="270"><defs><style type="text/css">@font-face { font-family: feedback-iconfont; src: url("//at.alicdn.com/t/font_1031158_u69w8yhxdu.woff2?t=1630033759944") format("woff2"), url("//at.alicdn.com/t/font_1031158_u69w8yhxdu.woff?t=1630033759944") format("woff"), url("//at.alicdn.com/t/font_1031158_u69w8yhxdu.ttf?t=1630033759944") format("truetype"); }
</style></defs><path d="M512.2 0L6.4 305v719h1011.7V305L512.2 0zM386.4 994.5V755.2h259.1v239.3H386.4z m602 0H675.1v-269H356.7v268.9H36V321.8L512.2 34.6l476.2 287.1v672.8z" fill="#1296db" p-id="53160"></path><path d="M195.9 310.1l244.7-141.3 14.7 25.5-244.7 141.3-14.7-25.5z m-51.4 28c-12.9 0-23.4 10.5-23.4 23.4 0 12.9 10.5 23.4 23.4 23.4s23.4-10.5 23.4-23.4c0.1-12.9-10.5-23.4-23.4-23.4z" fill="#1296db" p-id="53161"></path></svg>